<svg width="575" height="487" viewBox="0 0 575 487" fill="none" xmlns="http://www.w3.org/2000/svg">
<path d="M0 487L417.837 0L575 395.891L0 487Z" fill="#1C1C1C"/>
<g clip-path="url(#clip0_112_27)">
<path d="M285.628 185.072C285.628 185.072 273.938 171.072 225.272 172.99C186.235 174.53 99.4789 221.234 196.852 350.606C196.852 350.606 129.833 330.629 75.1249 259.971C69.633 212.876 87.9443 182.58 87.9443 182.58C70.2683 204.756 62.8562 225.924 59.7926 238.216C46.6767 217.72 34.8174 193.752 25.5982 165.836C45.1379 127.589 86.9843 117.047 91.1632 116.053C56.1077 119.427 32.1632 131.425 18.2991 140.847C15.419 129.479 12.9624 117.565 11 105.021C11 105.021 44.1496 85.2952 143.584 83.0973C243.033 80.8993 233.545 115.997 233.545 115.997C233.545 115.997 305.746 131.341 285.613 185.072H285.628Z" fill="url(#paint0_linear_112_27)"/>
<path d="M210.462 126.414C210.462 126.414 184.414 127.506 166.654 122.578C166.654 122.578 183.228 132.447 190.923 133.273C198.617 134.099 210.462 126.428 210.462 126.428V126.414Z" fill="white"/>
<path d="M285.599 185.045C284.907 184.275 272.511 171.129 225.272 172.991C186.235 174.531 99.4783 221.234 196.852 350.607C196.852 350.607 157.984 339.015 115.248 302.28C100.227 234.814 139.193 167.433 206.014 161.217C274.248 154.875 285.204 183.883 285.599 185.031V185.045Z" fill="#0B655B"/>
<path d="M258.323 335.221C245.066 335.221 233.348 333.751 223.14 330.825C212.947 327.899 204.377 323.419 197.459 317.4C190.541 311.38 185.304 303.778 181.774 294.594C178.23 285.41 176.466 274.602 176.466 262.17C176.466 246.322 179.685 232.91 186.108 221.921C192.546 210.931 201.963 202.601 214.373 196.889C226.783 191.191 241.946 188.335 259.876 188.335C265.34 188.335 270.648 188.573 275.801 189.063C280.969 189.553 285.952 190.309 290.767 191.331V225.351C286.545 224.511 282.169 223.853 277.665 223.363C273.147 222.873 268.46 222.635 263.589 222.635C253.65 222.635 245.532 224.007 239.221 226.736C232.924 229.48 228.251 233.722 225.244 239.49C222.223 245.258 220.712 252.678 220.712 261.764C220.712 270.85 222.18 278.466 225.103 284.234C228.025 290.002 232.571 294.216 238.741 296.89C244.911 299.564 252.873 300.894 262.615 300.894C267.288 300.894 272.018 300.53 276.79 299.788C281.562 299.046 286.221 298.094 290.767 296.932V330.951C286.277 332.239 281.166 333.275 275.42 334.045C269.674 334.815 263.97 335.207 258.323 335.207V335.221Z" fill="white"/>
<path d="M306.565 333.289V190.281H348.864V298.794H412.014V333.289H306.58H306.565Z" fill="white"/>
</g>
<path d="M207.413 370.71V355.296H210.222V370.71H207.413Z" fill="#948888"/>
<path d="M213.286 370.709V355.296H216.124L224.03 367.308H223.507V355.296H226.148V370.709H223.31L215.404 358.698H215.926V370.709H213.286Z" fill="#948888"/>
<path d="M233.264 370.864C232.84 370.864 232.417 370.864 231.965 370.836C231.513 370.822 231.061 370.794 230.61 370.752C230.144 370.724 229.678 370.668 229.212 370.612V355.604C229.664 355.506 230.158 355.422 230.68 355.352C231.203 355.282 231.725 355.226 232.261 355.184C232.798 355.142 233.32 355.128 233.829 355.128C236.553 355.128 238.615 355.772 240.012 357.046C241.396 358.334 242.102 360.308 242.102 362.996C242.102 364.83 241.777 366.328 241.128 367.476C240.478 368.624 239.49 369.478 238.191 370.024C236.878 370.57 235.24 370.836 233.278 370.836L233.264 370.864ZM233.956 368.568C235.127 368.568 236.102 368.386 236.878 368.008C237.655 367.63 238.248 367.042 238.629 366.216C239.01 365.404 239.208 364.326 239.208 362.982C239.208 361.638 239.01 360.588 238.629 359.762C238.248 358.95 237.669 358.348 236.892 357.97C236.116 357.592 235.156 357.396 234.012 357.396C233.702 357.396 233.377 357.41 233.024 357.438C232.671 357.466 232.346 357.508 232.007 357.564V368.442C232.318 368.47 232.643 368.498 232.953 368.512C233.264 368.512 233.603 368.526 233.956 368.526V368.568Z" fill="#948888"/>
<path d="M250.798 370.906C249.344 370.906 248.158 370.682 247.24 370.22C246.323 369.758 245.631 369.058 245.193 368.106C244.741 367.168 244.53 365.964 244.53 364.522V355.296H247.339V364.788C247.339 366.118 247.622 367.084 248.186 367.686C248.751 368.288 249.626 368.582 250.798 368.582C251.97 368.582 252.845 368.288 253.41 367.686C253.975 367.084 254.257 366.118 254.257 364.788V355.296H257.024V364.522C257.024 365.964 256.798 367.154 256.361 368.106C255.923 369.044 255.245 369.758 254.328 370.22C253.41 370.682 252.238 370.906 250.812 370.906H250.798Z" fill="#948888"/>
<path d="M263.604 370.906C262.898 370.906 262.178 370.85 261.458 370.738C260.738 370.626 260.06 370.472 259.439 370.262V367.966C259.877 368.106 260.328 368.232 260.808 368.33C261.289 368.428 261.769 368.498 262.249 368.554C262.729 368.61 263.18 368.638 263.604 368.638C264.733 368.638 265.538 368.456 266.046 368.078C266.54 367.7 266.795 367.168 266.795 366.482C266.795 365.894 266.611 365.432 266.244 365.11C265.877 364.788 265.213 364.508 264.239 364.256L263.194 363.99C261.853 363.654 260.837 363.122 260.159 362.422C259.481 361.722 259.128 360.784 259.128 359.636C259.128 358.222 259.637 357.116 260.667 356.304C261.684 355.492 263.223 355.1 265.27 355.1C265.933 355.1 266.583 355.142 267.19 355.226C267.811 355.31 268.362 355.422 268.856 355.562V357.858C268.348 357.704 267.797 357.578 267.19 357.494C266.583 357.41 266.004 357.368 265.411 357.368C264.564 357.368 263.886 357.452 263.378 357.634C262.87 357.802 262.503 358.054 262.277 358.362C262.051 358.684 261.938 359.048 261.938 359.496C261.938 360.056 262.107 360.49 262.432 360.798C262.757 361.106 263.364 361.386 264.239 361.61L265.284 361.876C266.272 362.114 267.091 362.436 267.726 362.828C268.362 363.22 268.842 363.696 269.152 364.27C269.463 364.83 269.618 365.502 269.618 366.286C269.618 367.252 269.378 368.078 268.898 368.764C268.418 369.45 267.741 369.982 266.851 370.346C265.962 370.71 264.889 370.892 263.618 370.892L263.604 370.906Z" fill="#948888"/>
<path d="M274.728 370.709V357.634H269.73V355.296H282.536V357.634H277.538V370.709H274.728Z" fill="#948888"/>
<path d="M284.217 370.71V355.604C284.654 355.52 285.12 355.436 285.628 355.352C286.123 355.282 286.645 355.212 287.181 355.17C287.718 355.128 288.269 355.114 288.819 355.114C290.993 355.114 292.617 355.506 293.69 356.29C294.777 357.074 295.314 358.292 295.314 359.944C295.314 361.008 295.059 361.904 294.537 362.632C294.029 363.36 293.28 363.892 292.306 364.256C291.332 364.62 290.16 364.802 288.791 364.802C288.438 364.802 288.113 364.802 287.831 364.788C287.548 364.774 287.266 364.76 286.956 364.746V370.71H284.188H284.217ZM288.847 362.702C290.16 362.702 291.135 362.478 291.742 362.044C292.363 361.61 292.659 360.91 292.659 359.944C292.659 359.3 292.532 358.782 292.278 358.376C292.024 357.97 291.629 357.676 291.106 357.48C290.584 357.284 289.906 357.2 289.087 357.2C288.664 357.2 288.297 357.214 287.958 357.256C287.619 357.298 287.294 357.34 286.97 357.396V362.618C287.196 362.632 287.407 362.66 287.591 362.674C287.789 362.674 287.986 362.702 288.184 362.702C288.381 362.702 288.607 362.702 288.833 362.702H288.847ZM293.464 370.71L288.297 363.542H291.332L296.57 370.71H293.464Z" fill="#948888"/>
<path d="M298.418 370.709V355.296H301.228V370.709H298.418Z" fill="#948888"/>
<path d="M302.965 370.71L308.189 355.296H312.255L317.478 370.71H314.697L310.038 356.542H310.363L305.718 370.71H302.965ZM306.255 366.286L306.862 364.046H313.539L314.147 366.286H306.255Z" fill="#948888"/>
<path d="M319.201 370.71V355.296H322.01V368.372H329.338V370.71H319.201Z" fill="#948888"/>
<path d="M339.8 370.906C339.094 370.906 338.374 370.85 337.654 370.738C336.934 370.626 336.256 370.472 335.635 370.262V367.966C336.073 368.106 336.525 368.232 337.005 368.33C337.485 368.428 337.965 368.498 338.445 368.554C338.925 368.61 339.376 368.638 339.8 368.638C340.929 368.638 341.734 368.456 342.242 368.078C342.751 367.7 342.991 367.168 342.991 366.482C342.991 365.894 342.807 365.432 342.44 365.11C342.073 364.788 341.409 364.508 340.435 364.256L339.391 363.99C338.049 363.654 337.033 363.122 336.355 362.422C335.677 361.722 335.324 360.784 335.324 359.636C335.324 358.222 335.833 357.116 336.863 356.304C337.88 355.492 339.419 355.1 341.466 355.1C342.129 355.1 342.779 355.142 343.386 355.226C343.993 355.31 344.558 355.422 345.052 355.562V357.858C344.544 357.704 343.993 357.578 343.4 357.494C342.807 357.41 342.214 357.368 341.621 357.368C340.774 357.368 340.096 357.452 339.588 357.634C339.08 357.802 338.713 358.054 338.487 358.362C338.261 358.67 338.148 359.048 338.148 359.496C338.148 360.056 338.318 360.49 338.642 360.798C338.981 361.12 339.574 361.386 340.449 361.61L341.494 361.876C342.482 362.114 343.301 362.436 343.937 362.828C344.572 363.22 345.052 363.696 345.363 364.27C345.673 364.83 345.828 365.502 345.828 366.286C345.828 367.252 345.588 368.078 345.108 368.764C344.628 369.45 343.951 369.982 343.061 370.346C342.172 370.71 341.099 370.892 339.828 370.892L339.8 370.906Z" fill="#948888"/>
<path d="M354.171 370.905C352.717 370.905 351.531 370.681 350.614 370.219C349.696 369.758 349.004 369.058 348.567 368.106C348.115 367.168 347.903 365.964 347.903 364.522V355.296H350.712V364.788C350.712 366.118 350.995 367.084 351.56 367.686C352.124 368.288 353 368.582 354.171 368.582C355.343 368.582 356.219 368.288 356.783 367.686C357.348 367.084 357.63 366.118 357.63 364.788V355.296H360.398V364.522C360.398 365.964 360.172 367.154 359.734 368.106C359.296 369.044 358.619 369.758 357.701 370.219C356.783 370.681 355.611 370.905 354.186 370.905H354.171Z" fill="#948888"/>
<path d="M363.377 370.71V355.562C364.083 355.422 364.789 355.31 365.523 355.24C366.257 355.17 367.019 355.128 367.838 355.128C370.055 355.128 371.735 355.562 372.85 356.444C373.966 357.326 374.53 358.698 374.53 360.588C374.53 362.366 373.98 363.724 372.878 364.648C371.777 365.572 370.111 366.034 367.881 366.034C367.584 366.034 367.288 366.034 367.019 366.02C366.751 366.02 366.469 365.992 366.172 365.964V370.71H363.363H363.377ZM367.909 363.906C369.264 363.906 370.238 363.64 370.86 363.122C371.481 362.604 371.777 361.75 371.777 360.602C371.777 359.454 371.467 358.572 370.86 358.04C370.252 357.508 369.321 357.242 368.05 357.242C367.683 357.242 367.358 357.242 367.048 357.284C366.751 357.312 366.455 357.354 366.158 357.41V363.808C366.441 363.85 366.723 363.864 366.991 363.892C367.259 363.906 367.556 363.92 367.881 363.92L367.909 363.906Z" fill="#948888"/>
<path d="M376.888 370.71V355.562C377.594 355.422 378.3 355.31 379.034 355.24C379.768 355.17 380.531 355.128 381.349 355.128C383.566 355.128 385.246 355.562 386.361 356.444C387.477 357.326 388.041 358.698 388.041 360.588C388.041 362.366 387.491 363.724 386.39 364.648C385.288 365.572 383.622 366.034 381.392 366.034C381.095 366.034 380.799 366.034 380.531 366.02C380.262 366.02 379.98 365.992 379.683 365.964V370.71H376.874H376.888ZM381.42 363.906C382.775 363.906 383.749 363.64 384.371 363.122C384.992 362.604 385.288 361.75 385.288 360.602C385.288 359.454 384.978 358.572 384.371 358.04C383.764 357.508 382.832 357.242 381.561 357.242C381.194 357.242 380.869 357.242 380.559 357.284C380.262 357.312 379.966 357.354 379.669 357.41V363.808C379.952 363.85 380.234 363.864 380.502 363.892C380.771 363.906 381.067 363.92 381.392 363.92L381.42 363.906Z" fill="#948888"/>
<path d="M390.399 370.709V355.296H393.208V368.372H400.536V370.709H390.399Z" fill="#948888"/>
<path d="M403.698 370.71V362.94L404.277 364.998L398.065 355.296H401.086L405.576 362.352H404.743L409.19 355.296H412L405.929 364.998L406.522 362.982V370.724H403.712L403.698 370.71Z" fill="#948888"/>
<defs>
<linearGradient id="paint0_linear_112_27" x1="11" y1="57.6919" x2="141.142" y2="197.268" gradientUnits="userSpaceOnUse">
<stop stop-color="#88EFE9"/>
<stop offset="0.535" stop-color="#00A49A"/>
</linearGradient>
<clipPath id="clip0_112_27">
<rect width="401" height="274.775" fill="white" transform="translate(11 83)"/>
</clipPath>
</defs>
</svg>
