<svg width="101" height="68" viewBox="0 0 101 68" fill="none" xmlns="http://www.w3.org/2000/svg">
<g clip-path="url(#clip0_132_151)">
<path d="M68.7449 25.2608C68.7449 25.2608 65.8186 21.7962 53.6367 22.2708C43.865 22.6519 22.1481 34.2099 46.5226 66.2264C46.5226 66.2264 29.7463 61.2824 16.0518 43.7965C14.677 32.1415 19.2607 24.6441 19.2607 24.6441C14.8361 30.132 12.9807 35.3705 12.2138 38.4125C8.93061 33.3403 5.96199 27.4088 3.65424 20.5004C8.5454 11.0351 19.0204 8.42621 20.0665 8.18023C11.2914 9.0152 5.29758 11.9844 1.82712 14.3161C1.10617 11.5028 0.491237 8.5544 0 5.45011C0 5.45011 8.29801 0.568466 33.1885 0.0245219C58.0826 -0.519423 55.7077 8.16637 55.7077 8.16637C55.7077 8.16637 73.7809 11.9636 68.7413 25.2608H68.7449Z" fill="url(#paint0_linear_132_151)"/>
<path d="M49.9294 10.7442C49.9294 10.7442 43.4091 11.0145 38.9632 9.79492C38.9632 9.79492 43.1122 12.2375 45.0383 12.4419C46.9643 12.6463 49.9294 10.7477 49.9294 10.7477V10.7442Z" fill="white"/>
<path d="M68.7378 25.2537C68.5646 25.0631 65.4617 21.8099 53.6367 22.2707C43.865 22.6518 22.1481 34.2097 46.5226 66.2262C46.5226 66.2262 36.7933 63.3575 26.0956 54.2664C22.3354 37.5704 32.0894 20.8952 48.8162 19.3569C65.8964 17.7874 68.6388 24.9661 68.7378 25.2502V25.2537Z" fill="#0B655B"/>
<path d="M61.9099 62.4191C58.5915 62.4191 55.6582 62.0553 53.103 61.3312C50.5514 60.6071 48.4062 59.4984 46.6745 58.0086C44.9429 56.5189 43.6317 54.6376 42.7482 52.3648C41.8611 50.092 41.4194 47.4173 41.4194 44.3407C41.4194 40.4188 42.2251 37.0997 43.8331 34.38C45.4447 31.6602 47.8019 29.5988 50.9084 28.1852C54.0148 26.7751 57.8104 26.0684 62.2987 26.0684C63.6664 26.0684 64.9952 26.1273 66.2851 26.2485C67.5786 26.3698 68.8261 26.5569 70.0313 26.8098V35.2288C68.9746 35.0209 67.879 34.8581 66.7516 34.7368C65.6207 34.6156 64.4474 34.5567 63.2282 34.5567C60.7402 34.5567 58.7081 34.8962 57.1283 35.5718C55.5521 36.2509 54.3824 37.3006 53.6296 38.7281C52.8733 40.1555 52.4952 41.9917 52.4952 44.2403C52.4952 46.4888 52.8627 48.3736 53.5943 49.801C54.3258 51.2284 55.4638 52.2712 57.0082 52.933C58.5526 53.5947 60.5458 53.9239 62.9843 53.9239C64.1541 53.9239 65.338 53.8338 66.5325 53.6502C67.727 53.4665 68.8933 53.2309 70.0313 52.9434V61.3624C68.9074 61.6811 67.6281 61.9375 66.1897 62.1281C64.7513 62.3186 63.3236 62.4156 61.9099 62.4156V62.4191Z" fill="white"/>
<path d="M73.9859 61.9408V26.5498H84.574V53.404H100.382V61.9408H73.9894H73.9859Z" fill="white"/>
<path d="M49.1661 67.9522V64.1377H49.8694V67.9522H49.1661Z" fill="white"/>
<path d="M50.6362 67.9522V64.1377H51.3466L53.3257 67.1103H53.1949V64.1377H53.8558V67.9522H53.1454L51.1663 64.9796H51.2971V67.9522H50.6362Z" fill="white"/>
<path d="M55.637 67.9899C55.5309 67.9899 55.4249 67.9899 55.3118 67.983C55.1987 67.9795 55.0856 67.9726 54.9726 67.9622C54.8559 67.9553 54.7393 67.9414 54.6227 67.9276V64.2135C54.7358 64.1892 54.8595 64.1685 54.9902 64.1511C55.121 64.1338 55.2517 64.12 55.386 64.1096C55.5203 64.0992 55.6511 64.0957 55.7783 64.0957C56.4604 64.0957 56.9764 64.2551 57.3263 64.5704C57.6726 64.8891 57.8493 65.3776 57.8493 66.0428C57.8493 66.4967 57.768 66.8674 57.6054 67.1515C57.4429 67.4356 57.1955 67.6469 56.8704 67.7821C56.5417 67.9172 56.1317 67.983 55.6405 67.983L55.637 67.9899ZM55.8101 67.4217C56.1035 67.4217 56.3473 67.3767 56.5417 67.2831C56.7361 67.1896 56.8845 67.0441 56.9799 66.8397C57.0753 66.6387 57.1248 66.372 57.1248 66.0394C57.1248 65.7067 57.0753 65.4469 56.9799 65.2425C56.8845 65.0415 56.7396 64.8926 56.5452 64.799C56.3508 64.7055 56.1105 64.657 55.8243 64.657C55.7465 64.657 55.6652 64.6604 55.5769 64.6674C55.4885 64.6743 55.4072 64.6847 55.3224 64.6985V67.3906C55.4002 67.3975 55.4815 67.4044 55.5592 67.4079C55.637 67.4079 55.7218 67.4113 55.8101 67.4113V67.4217Z" fill="white"/>
<path d="M60.0263 68.0007C59.6623 68.0007 59.3654 67.9453 59.1357 67.831C58.906 67.7166 58.7328 67.5434 58.6233 67.3078C58.5102 67.0757 58.4572 66.7777 58.4572 66.4209V64.1377H59.1604V66.4867C59.1604 66.8158 59.2311 67.0549 59.3725 67.2039C59.5138 67.3529 59.733 67.4256 60.0263 67.4256C60.3196 67.4256 60.5387 67.3529 60.6801 67.2039C60.8214 67.0549 60.8921 66.8158 60.8921 66.4867V64.1377H61.5848V66.4209C61.5848 66.7777 61.5283 67.0722 61.4187 67.3078C61.3091 67.54 61.1395 67.7166 60.9098 67.831C60.6801 67.9453 60.3868 68.0007 60.0298 68.0007H60.0263Z" fill="white"/>
<path d="M63.2317 68.0004C63.055 68.0004 62.8747 67.9866 62.6945 67.9588C62.5143 67.9311 62.3446 67.893 62.1891 67.841V67.2728C62.2987 67.3075 62.4118 67.3387 62.5319 67.3629C62.6521 67.3872 62.7723 67.4045 62.8924 67.4184C63.0126 67.4322 63.1257 67.4391 63.2317 67.4391C63.5144 67.4391 63.7159 67.3941 63.8431 67.3006C63.9668 67.207 64.0304 67.0754 64.0304 66.9056C64.0304 66.7601 63.9844 66.6458 63.8926 66.5661C63.8007 66.4864 63.6346 66.4171 63.3907 66.3547L63.1292 66.2889C62.7935 66.2057 62.539 66.0741 62.3694 65.9009C62.1997 65.7276 62.1114 65.4955 62.1114 65.2114C62.1114 64.8615 62.2386 64.5878 62.4966 64.3868C62.7511 64.1859 63.1363 64.0889 63.6487 64.0889C63.8148 64.0889 63.9774 64.0993 64.1293 64.1201C64.2848 64.1408 64.4227 64.1686 64.5464 64.2032V64.7714C64.4191 64.7333 64.2813 64.7021 64.1293 64.6813C63.9774 64.6605 63.8325 64.6501 63.6841 64.6501C63.472 64.6501 63.3024 64.6709 63.1751 64.716C63.0479 64.7575 62.956 64.8199 62.8995 64.8961C62.8429 64.9758 62.8147 65.0659 62.8147 65.1768C62.8147 65.3153 62.8571 65.4227 62.9384 65.499C63.0196 65.5752 63.1716 65.6445 63.3907 65.6999L63.6522 65.7657C63.8996 65.8246 64.1046 65.9043 64.2636 66.0013C64.4227 66.0983 64.5428 66.2161 64.6206 66.3582C64.6983 66.4968 64.7372 66.6631 64.7372 66.8571C64.7372 67.0962 64.6771 67.3006 64.557 67.4703C64.4368 67.6401 64.2672 67.7718 64.0445 67.8618C63.8219 67.9519 63.5533 67.997 63.2352 67.997L63.2317 68.0004Z" fill="white"/>
<path d="M66.0166 67.9522V64.7163H64.7655V64.1377H67.9709V64.7163H66.7198V67.9522H66.0166Z" fill="white"/>
<path d="M68.3915 67.9524V64.214C68.501 64.1932 68.6176 64.1725 68.7449 64.1517C68.8686 64.1343 68.9993 64.117 69.1336 64.1066C69.2679 64.0962 69.4057 64.0928 69.5436 64.0928C70.0878 64.0928 70.4942 64.1898 70.7628 64.3838C71.035 64.5778 71.1693 64.8792 71.1693 65.2881C71.1693 65.5514 71.1056 65.7731 70.9749 65.9533C70.8477 66.1334 70.6603 66.2651 70.4165 66.3552C70.1726 66.4452 69.8793 66.4903 69.5365 66.4903C69.4482 66.4903 69.3669 66.4903 69.2962 66.4868C69.2255 66.4834 69.1548 66.4799 69.0771 66.4764V67.9524H68.3844H68.3915ZM69.5506 65.9706C69.8793 65.9706 70.1232 65.9152 70.2751 65.8078C70.4306 65.7004 70.5048 65.5271 70.5048 65.2881C70.5048 65.1287 70.473 65.0005 70.4094 64.9C70.3458 64.7996 70.2469 64.7268 70.1161 64.6783C69.9853 64.6298 69.8157 64.609 69.6107 64.609C69.5047 64.609 69.4128 64.6125 69.328 64.6229C69.2432 64.6333 69.1619 64.6436 69.0806 64.6575V65.9498C69.1372 65.9533 69.1902 65.9602 69.2361 65.9637C69.2856 65.9637 69.3351 65.9706 69.3845 65.9706C69.434 65.9706 69.4906 65.9706 69.5471 65.9706H69.5506ZM70.7063 67.9524L69.4128 66.1785H70.1726L71.4838 67.9524H70.7063Z" fill="white"/>
<path d="M71.9467 67.9522V64.1377H72.65V67.9522H71.9467Z" fill="white"/>
<path d="M73.0847 67.9522L74.3923 64.1377H75.4101L76.7177 67.9522H76.0215L74.8553 64.446H74.9366L73.7739 67.9522H73.0847ZM73.9082 66.8574L74.0601 66.3031H75.7317L75.8837 66.8574H73.9082Z" fill="white"/>
<path d="M77.1489 67.9522V64.1377H77.8522V67.3736H79.6864V67.9522H77.1489Z" fill="white"/>
<path d="M82.3051 68.0004C82.1284 68.0004 81.9482 67.9866 81.7679 67.9588C81.5877 67.9311 81.4181 67.893 81.2626 67.841V67.2728C81.3721 67.3075 81.4852 67.3387 81.6054 67.3629C81.7255 67.3872 81.8457 67.4045 81.9658 67.4184C82.086 67.4322 82.1991 67.4391 82.3051 67.4391C82.5878 67.4391 82.7893 67.3941 82.9165 67.3006C83.0437 67.207 83.1038 67.0754 83.1038 66.9056C83.1038 66.7601 83.0579 66.6458 82.966 66.5661C82.8741 66.4864 82.708 66.4171 82.4641 66.3547L82.2026 66.2889C81.8669 66.2057 81.6124 66.0741 81.4428 65.9009C81.2732 65.7276 81.1848 65.4955 81.1848 65.2114C81.1848 64.8615 81.312 64.5878 81.57 64.3868C81.8245 64.1859 82.2097 64.0889 82.7221 64.0889C82.8882 64.0889 83.0508 64.0993 83.2028 64.1201C83.3547 64.1408 83.4961 64.1686 83.6198 64.2032V64.7714C83.4926 64.7333 83.3547 64.7021 83.2063 64.6813C83.0579 64.6605 82.9094 64.6501 82.761 64.6501C82.549 64.6501 82.3793 64.6709 82.2521 64.716C82.1249 64.7575 82.033 64.8199 81.9764 64.8961C81.9199 64.9723 81.8916 65.0659 81.8916 65.1768C81.8916 65.3153 81.934 65.4227 82.0153 65.499C82.1001 65.5787 82.2486 65.6445 82.4677 65.6999L82.7292 65.7657C82.9766 65.8246 83.1816 65.9043 83.3406 66.0013C83.4996 66.0983 83.6198 66.2161 83.6975 66.3582C83.7753 66.4968 83.8142 66.6631 83.8142 66.8571C83.8142 67.0962 83.7541 67.3006 83.6339 67.4703C83.5138 67.6401 83.3441 67.7718 83.1215 67.8618C82.8988 67.9519 82.6303 67.997 82.3122 67.997L82.3051 68.0004Z" fill="white"/>
<path d="M85.9028 68.0007C85.5388 68.0007 85.2419 67.9453 85.0122 67.831C84.7825 67.7166 84.6093 67.5434 84.4998 67.3078C84.3867 67.0757 84.3337 66.7777 84.3337 66.4209V64.1377H85.037V66.4867C85.037 66.8158 85.1076 67.0549 85.249 67.2039C85.3904 67.3529 85.6095 67.4256 85.9028 67.4256C86.1961 67.4256 86.4152 67.3529 86.5566 67.2039C86.698 67.0549 86.7687 66.8158 86.7687 66.4867V64.1377H87.4613V66.4209C87.4613 66.7777 87.4048 67.0722 87.2952 67.3078C87.1857 67.54 87.016 67.7166 86.7863 67.831C86.5566 67.9453 86.2633 68.0007 85.9063 68.0007H85.9028Z" fill="white"/>
<path d="M88.207 67.9518V64.2031C88.3837 64.1685 88.5604 64.1407 88.7442 64.1234C88.928 64.1061 89.1188 64.0957 89.3238 64.0957C89.8786 64.0957 90.2992 64.2031 90.5784 64.4214C90.8576 64.6396 90.9989 64.9792 90.9989 65.4469C90.9989 65.8869 90.8611 66.223 90.5855 66.4516C90.3098 66.6803 89.8928 66.7946 89.3344 66.7946C89.2602 66.7946 89.186 66.7946 89.1188 66.7912C89.0517 66.7912 88.981 66.7842 88.9068 66.7773V67.9518H88.2035H88.207ZM89.3415 66.268C89.6807 66.268 89.9246 66.2022 90.0801 66.074C90.2356 65.9458 90.3098 65.7345 90.3098 65.4504C90.3098 65.1663 90.2321 64.948 90.0801 64.8163C89.9281 64.6847 89.6949 64.6189 89.3768 64.6189C89.2849 64.6189 89.2036 64.6189 89.1259 64.6293C89.0517 64.6362 88.9775 64.6466 88.9032 64.6604V66.2438C88.9739 66.2542 89.0446 66.2576 89.1117 66.2646C89.1789 66.268 89.2531 66.2715 89.3344 66.2715L89.3415 66.268Z" fill="white"/>
<path d="M91.5891 67.9518V64.2031C91.7658 64.1685 91.9425 64.1407 92.1263 64.1234C92.3101 64.1061 92.5009 64.0957 92.7059 64.0957C93.2607 64.0957 93.6813 64.2031 93.9605 64.4214C94.2397 64.6396 94.381 64.9792 94.381 65.4469C94.381 65.8869 94.2432 66.223 93.9675 66.4516C93.6919 66.6803 93.2749 66.7946 92.7165 66.7946C92.6423 66.7946 92.568 66.7946 92.5009 66.7912C92.4337 66.7912 92.3631 66.7842 92.2889 66.7773V67.9518H91.5856H91.5891ZM92.7235 66.268C93.0628 66.268 93.3067 66.2022 93.4622 66.074C93.6177 65.9458 93.6919 65.7345 93.6919 65.4504C93.6919 65.1663 93.6141 64.948 93.4622 64.8163C93.3102 64.6847 93.077 64.6189 92.7589 64.6189C92.667 64.6189 92.5857 64.6189 92.508 64.6293C92.4338 64.6362 92.3595 64.6466 92.2853 64.6604V66.2438C92.356 66.2542 92.4267 66.2576 92.4938 66.2646C92.561 66.268 92.6352 66.2715 92.7165 66.2715L92.7235 66.268Z" fill="white"/>
<path d="M94.9713 67.9522V64.1377H95.6745V67.3736H97.5087V67.9522H94.9713Z" fill="white"/>
<path d="M98.3004 67.9522V66.0294L98.4453 66.5387L96.8903 64.1377H97.6465L98.7704 65.8839H98.5619L99.6751 64.1377H100.378L98.8587 66.5387L99.0072 66.0398V67.9557H98.3039L98.3004 67.9522Z" fill="white"/>
</g>
<defs>
<linearGradient id="paint0_linear_132_151" x1="0" y1="33.1151" x2="69.6319" y2="33.1151" gradientUnits="userSpaceOnUse">
<stop offset="0.25" stop-color="#00A49A"/>
<stop offset="1" stop-color="#00A49A"/>
</linearGradient>
<clipPath id="clip0_132_151">
<rect width="100.378" height="68" fill="white"/>
</clipPath>
</defs>
</svg>
