<svg width="29" height="27" viewBox="0 0 29 27" fill="none" xmlns="http://www.w3.org/2000/svg">
<path d="M28.0268 10.2986C28.0268 10.2986 26.8338 8.88613 21.8673 9.07964C17.8834 9.23502 9.0296 13.9471 18.9669 27C18.9669 27 12.1274 24.9844 6.54419 17.8555C5.98371 13.1039 7.85245 10.0472 7.85245 10.0472C6.04855 12.2846 5.29212 14.4203 4.97946 15.6605C3.64094 13.5926 2.43066 11.1744 1.4898 8.35786C3.48389 4.49891 7.75448 3.4353 8.18096 3.33502C4.60341 3.67543 2.15978 4.88594 0.744902 5.83655C0.450976 4.6896 0.200274 3.48757 0 2.22197C0 2.22197 3.38304 0.23176 13.5307 0.00999738C23.6798 -0.211765 22.7116 3.32937 22.7116 3.32937C22.7116 3.32937 30.0799 4.87746 28.0253 10.2986H28.0268Z" fill="url(#paint0_linear_160_4)"/>
<path d="M20.3559 4.38031C20.3559 4.38031 17.6976 4.49049 15.885 3.99329C15.885 3.99329 17.5765 4.9891 18.3618 5.07243C19.147 5.15577 20.3559 4.38172 20.3559 4.38172V4.38031Z" fill="white"/>
<path d="M28.0239 10.2959C27.9533 10.2182 26.6883 8.89189 21.8673 9.07975C17.8834 9.23512 9.02962 13.9472 18.9669 27.0001C18.9669 27.0001 15.0004 25.8306 10.639 22.1242C9.10598 15.3173 13.0826 8.51899 19.902 7.89184C26.8655 7.25198 27.9836 10.1787 28.0239 10.2945V10.2959Z" fill="#0B655B"/>
<defs>
<linearGradient id="paint0_linear_160_4" x1="0" y1="13.5008" x2="28.3884" y2="13.5008" gradientUnits="userSpaceOnUse">
<stop offset="0.25" stop-color="#00A49A"/>
<stop offset="1" stop-color="#00A49A"/>
</linearGradient>
</defs>
</svg>
