<svg width="587" height="438" viewBox="0 0 587 438" fill="none" xmlns="http://www.w3.org/2000/svg">
<path d="M142.559 285.98L153.705 277.511L157.197 279.945L153.111 293.333L150.748 291.686L154.576 279.676L154.827 279.851L144.893 287.606L142.559 285.98ZM147.043 284.771L148.893 283.219L153.501 286.43L152.677 288.697L147.043 284.771Z" fill="#5DF0E6"/>
<path d="M464.896 226.173C464.684 226.471 464.441 226.792 464.167 227.135C463.902 227.476 463.624 227.816 463.332 228.153C463.049 228.489 462.774 228.798 462.507 229.079L451.985 221.59C452.152 221.201 452.346 220.794 452.567 220.369C452.783 219.941 453.021 219.514 453.28 219.088C453.538 218.653 453.808 218.237 454.09 217.841C454.855 216.766 455.592 215.968 456.301 215.449C457.008 214.921 457.701 214.656 458.38 214.653C459.055 214.647 459.729 214.884 460.404 215.365C460.805 215.65 461.118 215.991 461.344 216.387C461.569 216.775 461.692 217.198 461.713 217.655C461.734 218.111 461.636 218.58 461.42 219.059L461.33 218.984C461.918 218.364 462.574 218.006 463.298 217.91C464.02 217.806 464.765 218.027 465.533 218.573C466.036 218.931 466.418 219.347 466.678 219.819C466.934 220.288 467.049 220.83 467.023 221.446C466.993 222.057 466.805 222.756 466.46 223.541C466.113 224.318 465.592 225.195 464.896 226.173ZM463.612 224.298C464.064 223.663 464.363 223.124 464.508 222.682C464.657 222.236 464.672 221.857 464.555 221.545C464.442 221.229 464.212 220.947 463.865 220.7C463.341 220.327 462.844 220.22 462.371 220.377C461.897 220.526 461.396 220.971 460.867 221.714L459.416 223.753L457.634 222.485L458.923 220.674C459.268 220.19 459.491 219.767 459.594 219.405C459.695 219.036 459.688 218.714 459.573 218.441C459.462 218.163 459.25 217.912 458.937 217.69C458.443 217.338 457.975 217.241 457.532 217.397C457.085 217.55 456.588 218.01 456.042 218.777C455.843 219.056 455.673 219.321 455.53 219.573C455.383 219.822 455.249 220.073 455.128 220.325L462.57 225.622C462.772 225.39 462.955 225.17 463.117 224.962C463.28 224.754 463.445 224.533 463.612 224.298Z" fill="#5DF0E6"/>
<path d="M390.447 339.778L396.97 345.122L380.349 358.758L390.447 339.778Z" fill="#5DF0E6"/>
<path d="M564.649 140.404L558.251 134.911L575.181 121.661L564.649 140.404Z" fill="#5DF0E6"/>
<path d="M83.1879 256.126L78.318 263.01L63.5423 247.393L83.1879 256.126Z" fill="#5DF0E6"/>
<path d="M205.443 354.323L210.418 347.515L224.952 363.357L205.443 354.323Z" fill="#5DF0E6"/>
<g filter="url(#filter0_d_94_3750)">
<path d="M241.752 231.628L256.338 214.044C262.599 207.051 276.2 190.307 280.516 179.277C284.832 168.247 295.102 154.034 299.698 148.306C330.01 110.944 391.156 35.5986 393.249 33.1132C393.293 33.0616 393.335 33.0095 393.375 32.9568M393.375 32.9568C395.292 30.4674 394.103 26.7022 393.249 25.1009C392.813 24.6649 391.124 23.4331 387.853 21.9942C384.583 20.5553 381.04 23.4658 379.678 25.1009C363.756 42.476 327.752 81.9557 311.104 100.873C294.456 119.791 277.931 136.161 271.749 141.981C257.8 152.789 242.416 166.659 236.468 172.244L210.037 200.458C200.275 202.414 181.312 213.755 183.55 243.473C183.705 244.405 184.389 246.457 185.881 247.203C186.233 247.379 187.262 248.015 188.717 248.942M393.375 32.9568C393.845 31.2296 394.092 27.7078 391.319 27.4384C388.547 27.1691 387.171 28.9724 386.83 29.9078L285.832 141.981C283.813 143.944 277.524 152.5 268.511 171.016C267.837 173.167 264.469 179.54 256.389 187.824L232.251 214.699M222.406 256.373C220.293 262.093 211.682 262.072 207.641 261.347C205.393 259.854 202.34 257.834 199.229 255.787M199.229 255.787C198.199 250.439 197.787 237.815 204.377 230.106C206.501 224.873 214.417 213.786 229.09 211.299M199.229 255.787C195.328 253.22 191.334 250.61 188.717 248.942M229.09 211.299L256.338 180.214L242.923 172.244L215.878 203.062M229.09 211.299L215.878 203.062M215.878 203.062C204.868 204.791 184.022 216.388 188.717 248.942" stroke="#A0FFF9" stroke-width="2" shape-rendering="crispEdges"/>
</g>
<g filter="url(#filter1_d_94_3750)">
<path d="M232.747 214.103C220.561 217.124 198.471 230.788 207.595 261.283M309.918 279.841C312.137 279.982 317.229 281.828 319.849 288.082M319.849 288.082C328.639 284.532 332.738 289.561 333.689 292.519M319.849 288.082C316.926 289.385 309.623 294.357 303.791 303.824M297.558 299.175C298.086 300.02 300.072 302.133 303.791 303.824M303.791 303.824L284.352 334.145C282.45 336.997 279.006 343.864 280.443 348.513C281.879 353.161 287.098 354.323 289.528 354.323C291.36 354.006 295.529 352.887 297.558 350.943C299.586 348.999 298.403 345.273 297.558 343.653L296.184 342.702M333.689 292.519C337.739 293.928 346.853 298.457 350.91 305.303C354.967 312.149 351.473 316.959 349.22 318.509C348.022 319.706 343.113 321.805 333.055 320.622C322.998 319.438 316.539 315.48 314.567 313.649M333.689 292.519C335.549 296.069 334.969 301.658 334.447 304.009M325.237 300.231C327.156 301.204 331.082 302.998 334.447 304.009M341.19 304.669C341.402 304.88 340.916 305.176 337.281 304.669C336.436 304.551 335.467 304.316 334.447 304.009" stroke="#A0FFF9" stroke-width="2"/>
</g>
<g filter="url(#filter2_d_94_3750)">
<path d="M327.984 299.598C327.808 298.295 326.357 297.041 321.962 302.45C318.1 307.203 307.266 323.943 300.514 334.576M295.973 349.569C293.268 346.78 296.184 341.082 297.98 338.582C298.727 337.394 299.582 336.043 300.514 334.576M326.505 319.459C326.252 320.051 314.849 335.905 309.179 343.758C309.072 341.581 307.189 336.696 300.514 334.576" stroke="#A0FFF9" stroke-width="2"/>
</g>
<g filter="url(#filter3_d_94_3750)">
<path d="M309.179 343.97C310.024 348.477 310.108 358.528 303.685 362.669C297.262 366.811 289.669 369.466 286.676 370.276L258.151 379.573C256.355 379.855 252.741 381.2 252.657 384.327C252.572 387.454 255.087 388.729 256.354 388.976C257.974 389.011 262.926 388.448 269.772 385.912C276.618 383.376 286.781 379.855 291.007 378.411C293.965 377.636 300.262 376.911 301.783 380.207C303.305 383.503 301.783 385.032 300.832 385.384C299.318 385.736 295.898 387.557 292.697 390.349C287.732 394.681 288.577 394.047 280.759 403.978C278.681 407.006 271.948 413.55 261.637 415.493C251.326 417.437 241.634 414.261 238.077 412.43C234.309 410.563 225.843 404.422 222.125 394.786C218.406 385.151 223.674 374.432 226.773 370.276C228.534 367.564 234.232 361.19 242.937 357.387C244.24 356.753 248.621 355.506 255.721 355.591C262.82 355.675 263.257 355.626 262.588 355.591C264.982 355.556 269.772 354.154 269.772 348.829C269.596 344.251 272.498 334.482 285.513 332.031M198.268 206.228C195.915 204.789 161.329 183.073 144.331 172.394C143.009 172.368 141.481 172.492 139.903 172.826M183.895 230.976L129.056 194.119C128.756 193.001 128.526 191.936 128.361 190.924M139.903 172.826C139.356 172.61 137.922 172.139 136.557 171.981C136.163 170.69 134.273 167.715 129.863 166.14M139.903 172.826C133.567 174.167 126.402 178.895 128.361 190.924M122.184 171.522C123.694 172.103 127.435 173.092 130.322 172.394C130.764 170.906 131.29 167.28 129.863 164.675C129.073 162.225 125.975 158.019 119.901 160.796C119.397 161.039 118.689 161.404 117.875 161.857M103.409 175.365C107.402 170.673 110.583 167.035 111.581 166.14C113.386 164.52 115.932 162.938 117.875 161.857M103.409 175.365C97.1548 182.713 88.9092 192.648 83.9367 198.684C81.8126 201.332 78.4107 207.342 81.7964 210.207C83.9124 211.238 89.1211 212.215 93.0276 207.874C93.799 207.111 95.1592 205.244 94.4289 203.881M103.409 175.365C101.258 173.095 97.7693 167.778 101.014 164.675C102.639 162.308 108.285 158.43 117.875 161.857M112.328 182.034C114.381 183.172 119.625 185.385 124.175 185.129C124.917 186.929 126.792 190.607 128.361 190.924M112.328 182.034C121.677 169.921 125.243 168.454 125.857 169.234M112.328 182.034L94.4289 203.881M93.9395 204.478L94.4289 203.881" stroke="#A0FFF9" stroke-width="2" shape-rendering="crispEdges"/>
</g>
<g filter="url(#filter4_d_94_3750)">
<path d="M100.008 197.126C101.749 198.293 104.656 201.383 104.516 205.495M104.516 205.495C104.49 206.263 104.358 207.066 104.092 207.899C102.402 213.194 99.7265 215.926 98.5999 216.63C97.5907 217.733 94.2203 220.08 88.8125 220.644C83.4047 221.207 81.5365 220.878 81.2783 220.644C79.7682 220.595 76.5577 221.674 75.7966 226.379C74.8452 232.26 71.1264 237.45 67.5804 240.563C64.0344 243.677 60.6615 247.915 47.083 248.261C36.2201 248.537 29.9873 245.205 28.2288 243.504C26.1034 242.242 21.7857 238.186 21.5173 232.059C21.249 225.932 24.1633 220.636 25.654 218.754C26.8058 216.954 31.0106 212.579 38.6153 209.485C46.22 206.392 46.9755 206.406 46.4026 206.8C48.3539 206.066 52.9117 203.889 55.5326 201.053C58.1534 198.218 59.7395 199.192 60.205 200.033C60.742 201.895 61.3006 206.123 59.2383 208.143C57.176 210.162 50.0009 218.329 46.6711 222.16C44.9167 224.487 43.191 228.647 50.3231 226.671C51.3972 226.466 54.4799 224.973 58.2179 220.644C61.9558 216.314 71.2325 204.741 75.4037 199.496C77.5877 197.097 83.0514 192.772 87.4337 194.662M104.516 205.495L121.837 184.944" stroke="#A0FFF9" stroke-width="2"/>
</g>
<g filter="url(#filter5_d_94_3750)">
<path d="M209.662 205.704L220.697 213.631M202.046 209.123L214.014 218.138M196.917 213.631L209.662 222.646M192.409 221.558L204.066 229.795M189.301 231.816L199.093 238.81M188.523 242.229L199.093 248.757M218.521 203.839L242.457 180.836M242.457 180.836V173.064M242.457 180.836L250.694 185.965M224.738 221.558C217.588 224.77 205.435 235.142 214.014 250.933L291.261 300.515C292.297 300.67 295.022 300.67 297.633 299.427C295.405 296.888 291.976 290.381 296.079 284.661C301.208 277.511 306.182 278.133 309.912 279.532C310.285 276.797 308.306 273.522 307.27 272.227L224.738 221.558Z" stroke="#A0FFF9" stroke-width="2" shape-rendering="crispEdges"/>
</g>
<path d="M65.6173 248.932L222.241 361.151" stroke="#A0FFF9" stroke-width="0.25"/>
<path d="M341.482 333.207L382.994 360.281M410.97 35.3994L586.045 128.352M373.97 366.598L586.045 108.498" stroke="#A0FFF9" stroke-width="0.5"/>
<defs>
<filter id="filter0_d_94_3750" x="162.368" y="0.605957" width="253.037" height="282.076" filterUnits="userSpaceOnUse" color-interpolation-filters="sRGB">
<feFlood flood-opacity="0" result="BackgroundImageFix"/>
<feColorMatrix in="SourceAlpha" type="matrix" values="0 0 0 0 0 0 0 0 0 0 0 0 0 0 0 0 0 0 127 0" result="hardAlpha"/>
<feOffset/>
<feGaussianBlur stdDeviation="10"/>
<feComposite in2="hardAlpha" operator="out"/>
<feColorMatrix type="matrix" values="0 0 0 0 0.365647 0 0 0 0 0.940234 0 0 0 0 0.902835 0 0 0 1 0"/>
<feBlend mode="normal" in2="BackgroundImageFix" result="effect1_dropShadow_94_3750"/>
<feBlend mode="normal" in="SourceGraphic" in2="effect1_dropShadow_94_3750" result="shape"/>
</filter>
<filter id="filter1_d_94_3750" x="184.443" y="193.132" width="189.332" height="182.191" filterUnits="userSpaceOnUse" color-interpolation-filters="sRGB">
<feFlood flood-opacity="0" result="BackgroundImageFix"/>
<feColorMatrix in="SourceAlpha" type="matrix" values="0 0 0 0 0 0 0 0 0 0 0 0 0 0 0 0 0 0 127 0" result="hardAlpha"/>
<feOffset/>
<feGaussianBlur stdDeviation="10"/>
<feComposite in2="hardAlpha" operator="out"/>
<feColorMatrix type="matrix" values="0 0 0 0 0.365647 0 0 0 0 0.940234 0 0 0 0 0.902835 0 0 0 1 0"/>
<feBlend mode="normal" in2="BackgroundImageFix" result="effect1_dropShadow_94_3750"/>
<feBlend mode="normal" in="SourceGraphic" in2="effect1_dropShadow_94_3750" result="shape"/>
</filter>
<filter id="filter2_d_94_3750" x="273.874" y="277.47" width="75.1011" height="92.7949" filterUnits="userSpaceOnUse" color-interpolation-filters="sRGB">
<feFlood flood-opacity="0" result="BackgroundImageFix"/>
<feColorMatrix in="SourceAlpha" type="matrix" values="0 0 0 0 0 0 0 0 0 0 0 0 0 0 0 0 0 0 127 0" result="hardAlpha"/>
<feOffset/>
<feGaussianBlur stdDeviation="10"/>
<feComposite in2="hardAlpha" operator="out"/>
<feColorMatrix type="matrix" values="0 0 0 0 0.365647 0 0 0 0 0.940234 0 0 0 0 0.902835 0 0 0 1 0"/>
<feBlend mode="normal" in2="BackgroundImageFix" result="effect1_dropShadow_94_3750"/>
<feBlend mode="normal" in="SourceGraphic" in2="effect1_dropShadow_94_3750" result="shape"/>
</filter>
<filter id="filter3_d_94_3750" x="59.3655" y="138.881" width="271.219" height="298.221" filterUnits="userSpaceOnUse" color-interpolation-filters="sRGB">
<feFlood flood-opacity="0" result="BackgroundImageFix"/>
<feColorMatrix in="SourceAlpha" type="matrix" values="0 0 0 0 0 0 0 0 0 0 0 0 0 0 0 0 0 0 127 0" result="hardAlpha"/>
<feOffset/>
<feGaussianBlur stdDeviation="10"/>
<feComposite in2="hardAlpha" operator="out"/>
<feColorMatrix type="matrix" values="0 0 0 0 0.365647 0 0 0 0 0.940234 0 0 0 0 0.902835 0 0 0 1 0"/>
<feBlend mode="normal" in2="BackgroundImageFix" result="effect1_dropShadow_94_3750"/>
<feBlend mode="normal" in="SourceGraphic" in2="effect1_dropShadow_94_3750" result="shape"/>
</filter>
<filter id="filter4_d_94_3750" x="0.5" y="164.299" width="142.101" height="104.978" filterUnits="userSpaceOnUse" color-interpolation-filters="sRGB">
<feFlood flood-opacity="0" result="BackgroundImageFix"/>
<feColorMatrix in="SourceAlpha" type="matrix" values="0 0 0 0 0 0 0 0 0 0 0 0 0 0 0 0 0 0 127 0" result="hardAlpha"/>
<feOffset/>
<feGaussianBlur stdDeviation="10"/>
<feComposite in2="hardAlpha" operator="out"/>
<feColorMatrix type="matrix" values="0 0 0 0 0.365647 0 0 0 0 0.940234 0 0 0 0 0.902835 0 0 0 1 0"/>
<feBlend mode="normal" in2="BackgroundImageFix" result="effect1_dropShadow_94_3750"/>
<feBlend mode="normal" in="SourceGraphic" in2="effect1_dropShadow_94_3750" result="shape"/>
</filter>
<filter id="filter5_d_94_3750" x="167.998" y="153.064" width="162.96" height="168.521" filterUnits="userSpaceOnUse" color-interpolation-filters="sRGB">
<feFlood flood-opacity="0" result="BackgroundImageFix"/>
<feColorMatrix in="SourceAlpha" type="matrix" values="0 0 0 0 0 0 0 0 0 0 0 0 0 0 0 0 0 0 127 0" result="hardAlpha"/>
<feOffset/>
<feGaussianBlur stdDeviation="10"/>
<feComposite in2="hardAlpha" operator="out"/>
<feColorMatrix type="matrix" values="0 0 0 0 0.365647 0 0 0 0 0.940234 0 0 0 0 0.902835 0 0 0 1 0"/>
<feBlend mode="normal" in2="BackgroundImageFix" result="effect1_dropShadow_94_3750"/>
<feBlend mode="normal" in="SourceGraphic" in2="effect1_dropShadow_94_3750" result="shape"/>
</filter>
</defs>
</svg>
