<svg width="616" height="279" viewBox="0 0 616 279" fill="none" xmlns="http://www.w3.org/2000/svg">
<path d="M602.603 144.52C602.602 144.892 602.592 145.282 602.573 145.69C602.56 146.098 602.539 146.512 602.508 146.932C602.477 147.352 602.434 147.766 602.379 148.174L589.437 148.146C589.348 147.731 589.271 147.29 589.206 146.822C589.141 146.348 589.091 145.865 589.056 145.373C589.021 144.881 589.004 144.398 589.005 143.924C589.01 141.506 589.566 139.683 590.673 138.455C591.774 137.222 593.491 136.607 595.825 136.612C597.415 136.616 598.71 136.91 599.711 137.494C600.706 138.078 601.439 138.956 601.91 140.127C602.376 141.298 602.607 142.762 602.603 144.52ZM600.229 143.759C600.231 142.835 600.088 142.067 599.802 141.454C599.509 140.835 599.039 140.375 598.392 140.074C597.738 139.767 596.878 139.612 595.81 139.609C594.748 139.607 593.892 139.761 593.244 140.072C592.589 140.376 592.114 140.834 591.819 141.446C591.517 142.057 591.366 142.816 591.364 143.722C591.363 143.95 591.375 144.199 591.398 144.469C591.421 144.739 591.454 144.991 591.495 145.225L600.162 145.244C600.187 144.998 600.205 144.755 600.218 144.515C600.224 144.269 600.228 144.017 600.229 143.759Z" fill="#5DF0E6"/>
<path d="M532.524 78.3568L522.543 69.5364L528.735 62.5294L530.488 64.0789L526.209 68.9211L532.684 74.6424L537.022 69.7328L538.776 71.2823L532.524 78.3568ZM529.446 73.3185L527.692 71.7689L532.126 66.7514L533.88 68.3009L529.446 73.3185Z" fill="#5DF0E6"/>
<path d="M221.626 267.514C221.26 267.514 220.858 267.502 220.42 267.478C219.988 267.46 219.55 267.43 219.106 267.388C218.668 267.352 218.257 267.307 217.873 267.253V254.338C218.287 254.248 218.731 254.17 219.205 254.104C219.679 254.032 220.165 253.978 220.663 253.942C221.167 253.9 221.662 253.879 222.148 253.879C223.468 253.879 224.545 254.017 225.379 254.293C226.219 254.563 226.837 254.974 227.233 255.526C227.629 256.072 227.827 256.759 227.827 257.587C227.827 258.079 227.731 258.532 227.539 258.946C227.353 259.354 227.08 259.699 226.72 259.981C226.36 260.263 225.922 260.455 225.406 260.557L225.415 260.44C226.261 260.56 226.933 260.887 227.431 261.421C227.935 261.949 228.187 262.684 228.187 263.626C228.187 264.244 228.07 264.796 227.836 265.282C227.602 265.762 227.227 266.17 226.711 266.506C226.195 266.836 225.517 267.088 224.677 267.262C223.843 267.43 222.826 267.514 221.626 267.514ZM222.409 265.381C223.189 265.381 223.801 265.312 224.245 265.174C224.695 265.036 225.013 264.829 225.199 264.553C225.391 264.277 225.487 263.926 225.487 263.5C225.487 262.858 225.286 262.39 224.884 262.096C224.488 261.796 223.834 261.646 222.922 261.646H220.42V259.459H222.643C223.237 259.459 223.711 259.396 224.065 259.27C224.425 259.138 224.683 258.946 224.839 258.694C225.001 258.442 225.082 258.124 225.082 257.74C225.082 257.134 224.89 256.696 224.506 256.426C224.122 256.15 223.459 256.012 222.517 256.012C222.175 256.012 221.86 256.027 221.572 256.057C221.284 256.081 221.002 256.117 220.726 256.165V265.3C221.032 265.33 221.317 265.351 221.581 265.363C221.845 265.375 222.121 265.381 222.409 265.381Z" fill="#5DF0E6"/>
<path d="M104.366 19.1318L108.668 5.81184H112.925L117.227 19.1318H114.347L110.621 7.08984H110.927L107.21 19.1318H104.366ZM107.354 15.5768L107.984 13.2458H113.6L114.221 15.5768H107.354Z" fill="#5DF0E6"/>
<path d="M336.806 21.2096C335.702 21.2096 334.721 21.0806 333.863 20.8226C333.005 20.5586 332.276 20.1536 331.676 19.6076C331.082 19.0556 330.632 18.3506 330.326 17.4926C330.02 16.6346 329.867 15.6056 329.867 14.4056C329.867 12.8816 330.143 11.6126 330.695 10.5986C331.247 9.57857 332.051 8.81657 333.107 8.31257C334.163 7.80257 335.444 7.54757 336.95 7.54757C337.46 7.54757 337.952 7.57457 338.426 7.62857C338.9 7.67657 339.362 7.75457 339.812 7.86257V10.2746C339.392 10.1726 338.963 10.0946 338.525 10.0406C338.093 9.98657 337.646 9.95957 337.184 9.95957C336.224 9.95957 335.429 10.1096 334.799 10.4096C334.175 10.7036 333.707 11.1746 333.395 11.8226C333.083 12.4706 332.927 13.3196 332.927 14.3696C332.927 15.4556 333.08 16.3226 333.386 16.9706C333.698 17.6126 334.16 18.0776 334.772 18.3656C335.39 18.6536 336.161 18.7976 337.085 18.7976C337.541 18.7976 337.994 18.7616 338.444 18.6896C338.894 18.6116 339.35 18.5066 339.812 18.3746V20.7776C339.386 20.9096 338.912 21.0146 338.39 21.0926C337.874 21.1706 337.346 21.2096 336.806 21.2096Z" fill="#5DF0E6"/>
<path d="M611.156 188.946L605.389 188.946L608.273 174.528L611.156 188.946Z" fill="#5DF0E6"/>
<path d="M605.389 96.8062H611.157L608.273 111.225L605.389 96.8062Z" fill="#5DF0E6"/>
<path d="M528.892 83.511L533.146 87.4055L521.283 96.0929L528.892 83.511Z" fill="#5DF0E6"/>
<path d="M153.003 275.035L153.003 269.268L167.422 272.152L153.003 275.035Z" fill="#5DF0E6"/>
<path d="M296.3 269.268L296.3 275.035L281.882 272.152L296.3 269.268Z" fill="#5DF0E6"/>
<path d="M35.9133 22.3311L35.9133 28.0984L21.4949 25.2147L35.9133 22.3311Z" fill="#5DF0E6"/>
<path d="M184.102 28.0984L184.102 22.331L198.521 25.2147L184.102 28.0984Z" fill="#5DF0E6"/>
<path d="M296.538 28.0984L296.538 22.331L310.956 25.2147L296.538 28.0984Z" fill="#5DF0E6"/>
<path d="M372.036 22.3313L372.036 28.0987L357.617 25.215L372.036 22.3313Z" fill="#5DF0E6"/>
<g filter="url(#filter0_d_79_479)">
<path d="M187.756 128.809H32.26C26.3146 128.809 21.4949 133.657 21.4949 139.637V142.043C21.4949 148.024 26.3146 152.872 32.26 152.872H187.756C193.701 152.872 198.521 148.024 198.521 142.043V139.637C198.521 133.657 193.701 128.809 187.756 128.809Z" stroke="#A0FFF9" stroke-width="2" shape-rendering="crispEdges"/>
</g>
<g filter="url(#filter1_d_79_479)">
<path d="M412.626 128.809H257.131C251.185 128.809 246.366 133.657 246.366 139.637V142.043C246.366 148.024 251.185 152.872 257.131 152.872H412.626C418.572 152.872 423.391 148.024 423.391 142.043V139.637C423.391 133.657 418.572 128.809 412.626 128.809Z" stroke="#A0FFF9" stroke-width="2" shape-rendering="crispEdges"/>
</g>
<g filter="url(#filter2_d_79_479)">
<path d="M259.523 80.6841H185.363C156.958 80.6841 133.93 103.846 133.93 132.418V151.668C133.93 180.241 156.958 203.403 185.363 203.403H259.523C287.929 203.403 310.956 180.241 310.956 151.668V132.418C310.956 103.846 287.929 80.6841 259.523 80.6841Z" stroke="#A0FFF9" stroke-width="2" shape-rendering="crispEdges"/>
</g>
<g filter="url(#filter3_d_79_479)">
<path d="M484.394 80.6841H410.234C381.828 80.6841 358.801 103.846 358.801 132.418V151.668C358.801 180.241 381.828 203.403 410.234 203.403H484.394C512.799 203.403 535.827 180.241 535.827 151.668V132.418C535.827 103.846 512.799 80.6841 484.394 80.6841Z" stroke="#A0FFF9" stroke-width="2" shape-rendering="crispEdges"/>
</g>
<g filter="url(#filter4_d_79_479)">
<path d="M249.954 109.559H199.717C181.881 109.559 167.422 124.103 167.422 142.043C167.422 159.984 181.881 174.528 199.717 174.528H249.954C267.79 174.528 282.249 159.984 282.249 142.043C282.249 124.103 267.79 109.559 249.954 109.559Z" stroke="#A0FFF9" stroke-width="2" shape-rendering="crispEdges"/>
</g>
<g filter="url(#filter5_d_79_479)">
<path d="M474.825 109.559H424.588C406.751 109.559 392.292 124.103 392.292 142.043C392.292 159.984 406.751 174.528 424.588 174.528H474.825C492.661 174.528 507.12 159.984 507.12 142.043C507.12 124.103 492.661 109.559 474.825 109.559Z" stroke="#A0FFF9" stroke-width="2" shape-rendering="crispEdges"/>
</g>
<path d="M282.419 162.678V278.216" stroke="#A0FFF9" stroke-width="0.5"/>
<path d="M167.422 160.84V276.378" stroke="#A0FFF9" stroke-width="0.5"/>
<path d="M144.838 272.152H303.449" stroke="#A0FFF9" stroke-width="0.5"/>
<path d="M21.3142 127.091V19.0386" stroke="#A0FFF9" stroke-width="0.5"/>
<path d="M198.521 128.043V19.9907" stroke="#A0FFF9" stroke-width="0.5"/>
<path d="M310.956 128.043V19.9907" stroke="#A0FFF9" stroke-width="0.5"/>
<path d="M358.801 128.043V19.9907" stroke="#A0FFF9" stroke-width="0.5"/>
<path d="M15.0942 25.2148H202.866" stroke="#A0FFF9" stroke-width="0.5"/>
<path d="M294.433 25.2148H374.433" stroke="#A0FFF9" stroke-width="0.5"/>
<path d="M496.154 174.528H615.5" stroke="#A0FFF9" stroke-width="0.5"/>
<path d="M496.154 109.559H615.5" stroke="#A0FFF9" stroke-width="0.5"/>
<path d="M608.273 92.0823V194.268" stroke="#A0FFF9" stroke-width="0.5"/>
<path d="M481.462 141.105L507.801 111.39M516.29 101.776L548.07 65.9436" stroke="#A0FFF9" stroke-width="0.5"/>
<defs>
<filter id="filter0_d_79_479" x="0.494873" y="107.809" width="219.026" height="66.0625" filterUnits="userSpaceOnUse" color-interpolation-filters="sRGB">
<feFlood flood-opacity="0" result="BackgroundImageFix"/>
<feColorMatrix in="SourceAlpha" type="matrix" values="0 0 0 0 0 0 0 0 0 0 0 0 0 0 0 0 0 0 127 0" result="hardAlpha"/>
<feOffset/>
<feGaussianBlur stdDeviation="10"/>
<feComposite in2="hardAlpha" operator="out"/>
<feColorMatrix type="matrix" values="0 0 0 0 0.365647 0 0 0 0 0.940234 0 0 0 0 0.902835 0 0 0 1 0"/>
<feBlend mode="normal" in2="BackgroundImageFix" result="effect1_dropShadow_79_479"/>
<feBlend mode="normal" in="SourceGraphic" in2="effect1_dropShadow_79_479" result="shape"/>
</filter>
<filter id="filter1_d_79_479" x="225.366" y="107.809" width="219.026" height="66.0625" filterUnits="userSpaceOnUse" color-interpolation-filters="sRGB">
<feFlood flood-opacity="0" result="BackgroundImageFix"/>
<feColorMatrix in="SourceAlpha" type="matrix" values="0 0 0 0 0 0 0 0 0 0 0 0 0 0 0 0 0 0 127 0" result="hardAlpha"/>
<feOffset/>
<feGaussianBlur stdDeviation="10"/>
<feComposite in2="hardAlpha" operator="out"/>
<feColorMatrix type="matrix" values="0 0 0 0 0.365647 0 0 0 0 0.940234 0 0 0 0 0.902835 0 0 0 1 0"/>
<feBlend mode="normal" in2="BackgroundImageFix" result="effect1_dropShadow_79_479"/>
<feBlend mode="normal" in="SourceGraphic" in2="effect1_dropShadow_79_479" result="shape"/>
</filter>
<filter id="filter2_d_79_479" x="112.93" y="59.6841" width="219.026" height="164.719" filterUnits="userSpaceOnUse" color-interpolation-filters="sRGB">
<feFlood flood-opacity="0" result="BackgroundImageFix"/>
<feColorMatrix in="SourceAlpha" type="matrix" values="0 0 0 0 0 0 0 0 0 0 0 0 0 0 0 0 0 0 127 0" result="hardAlpha"/>
<feOffset/>
<feGaussianBlur stdDeviation="10"/>
<feComposite in2="hardAlpha" operator="out"/>
<feColorMatrix type="matrix" values="0 0 0 0 0.365647 0 0 0 0 0.940234 0 0 0 0 0.902835 0 0 0 1 0"/>
<feBlend mode="normal" in2="BackgroundImageFix" result="effect1_dropShadow_79_479"/>
<feBlend mode="normal" in="SourceGraphic" in2="effect1_dropShadow_79_479" result="shape"/>
</filter>
<filter id="filter3_d_79_479" x="337.801" y="59.6841" width="219.026" height="164.719" filterUnits="userSpaceOnUse" color-interpolation-filters="sRGB">
<feFlood flood-opacity="0" result="BackgroundImageFix"/>
<feColorMatrix in="SourceAlpha" type="matrix" values="0 0 0 0 0 0 0 0 0 0 0 0 0 0 0 0 0 0 127 0" result="hardAlpha"/>
<feOffset/>
<feGaussianBlur stdDeviation="10"/>
<feComposite in2="hardAlpha" operator="out"/>
<feColorMatrix type="matrix" values="0 0 0 0 0.365647 0 0 0 0 0.940234 0 0 0 0 0.902835 0 0 0 1 0"/>
<feBlend mode="normal" in2="BackgroundImageFix" result="effect1_dropShadow_79_479"/>
<feBlend mode="normal" in="SourceGraphic" in2="effect1_dropShadow_79_479" result="shape"/>
</filter>
<filter id="filter4_d_79_479" x="146.422" y="88.5591" width="156.828" height="106.969" filterUnits="userSpaceOnUse" color-interpolation-filters="sRGB">
<feFlood flood-opacity="0" result="BackgroundImageFix"/>
<feColorMatrix in="SourceAlpha" type="matrix" values="0 0 0 0 0 0 0 0 0 0 0 0 0 0 0 0 0 0 127 0" result="hardAlpha"/>
<feOffset/>
<feGaussianBlur stdDeviation="10"/>
<feComposite in2="hardAlpha" operator="out"/>
<feColorMatrix type="matrix" values="0 0 0 0 0.365647 0 0 0 0 0.940234 0 0 0 0 0.902835 0 0 0 1 0"/>
<feBlend mode="normal" in2="BackgroundImageFix" result="effect1_dropShadow_79_479"/>
<feBlend mode="normal" in="SourceGraphic" in2="effect1_dropShadow_79_479" result="shape"/>
</filter>
<filter id="filter5_d_79_479" x="371.292" y="88.5591" width="156.828" height="106.969" filterUnits="userSpaceOnUse" color-interpolation-filters="sRGB">
<feFlood flood-opacity="0" result="BackgroundImageFix"/>
<feColorMatrix in="SourceAlpha" type="matrix" values="0 0 0 0 0 0 0 0 0 0 0 0 0 0 0 0 0 0 127 0" result="hardAlpha"/>
<feOffset/>
<feGaussianBlur stdDeviation="10"/>
<feComposite in2="hardAlpha" operator="out"/>
<feColorMatrix type="matrix" values="0 0 0 0 0.365647 0 0 0 0 0.940234 0 0 0 0 0.902835 0 0 0 1 0"/>
<feBlend mode="normal" in2="BackgroundImageFix" result="effect1_dropShadow_79_479"/>
<feBlend mode="normal" in="SourceGraphic" in2="effect1_dropShadow_79_479" result="shape"/>
</filter>
</defs>
</svg>
