<svg width="382" height="534" viewBox="0 0 382 534" fill="none" xmlns="http://www.w3.org/2000/svg">
<path d="M138.584 522.531V521.107L144.432 512.355L144.464 512.851H138.672V510.691H147.464V512.115L141.624 520.867L141.584 520.371H147.552V522.531H138.584Z" fill="#5DF0E6"/>
<path d="M137.752 472.427V460.587H140.912L144.368 468.411H144.056L147.416 460.587H150.576V472.427H148.152V462.859H148.664L145.232 470.715H143.096L139.552 462.859H140.176V472.427H137.752Z" fill="#5DF0E6"/>
<path d="M142.675 192.88C142.35 192.88 141.992 192.869 141.603 192.848C141.219 192.832 140.83 192.805 140.435 192.768C140.046 192.736 139.68 192.696 139.339 192.648V181.168C139.707 181.088 140.102 181.019 140.523 180.96C140.944 180.896 141.376 180.848 141.819 180.816C142.267 180.779 142.707 180.76 143.139 180.76C144.312 180.76 145.27 180.883 146.011 181.128C146.758 181.368 147.307 181.733 147.659 182.224C148.011 182.709 148.187 183.32 148.187 184.056C148.187 184.493 148.102 184.896 147.931 185.264C147.766 185.627 147.523 185.933 147.203 186.184C146.883 186.435 146.494 186.605 146.035 186.696L146.043 186.592C146.795 186.699 147.392 186.989 147.835 187.464C148.283 187.933 148.507 188.587 148.507 189.424C148.507 189.973 148.403 190.464 148.195 190.896C147.987 191.323 147.654 191.685 147.195 191.984C146.736 192.277 146.134 192.501 145.387 192.656C144.646 192.805 143.742 192.88 142.675 192.88ZM143.371 190.984C144.064 190.984 144.608 190.923 145.003 190.8C145.403 190.677 145.686 190.493 145.851 190.248C146.022 190.003 146.107 189.691 146.107 189.312C146.107 188.741 145.928 188.325 145.571 188.064C145.219 187.797 144.638 187.664 143.827 187.664H141.603V185.72H143.579C144.107 185.72 144.528 185.664 144.843 185.552C145.163 185.435 145.392 185.264 145.531 185.04C145.675 184.816 145.747 184.533 145.747 184.192C145.747 183.653 145.576 183.264 145.235 183.024C144.894 182.779 144.304 182.656 143.467 182.656C143.163 182.656 142.883 182.669 142.627 182.696C142.371 182.717 142.12 182.749 141.875 182.792V190.912C142.147 190.939 142.4 190.957 142.635 190.968C142.87 190.979 143.115 190.984 143.371 190.984Z" fill="#5DF0E6"/>
<path d="M145.958 16.1499V10.0859L146.486 11.9979L141.686 4.3099H144.446L147.686 9.5419H146.95L150.15 4.3099H152.71L148.03 11.9979L148.558 10.1259V16.1499H145.958Z" fill="#5DF0E6"/>
<path d="M318.156 85.579C317.825 85.579 317.478 85.571 317.116 85.555C316.753 85.5443 316.385 85.5257 316.012 85.499C315.638 85.4723 315.27 85.435 314.908 85.387V73.883C315.276 73.803 315.668 73.7337 316.084 73.675C316.505 73.6163 316.934 73.571 317.372 73.539C317.809 73.507 318.238 73.491 318.66 73.491C320.809 73.491 322.43 73.9817 323.524 74.963C324.622 75.939 325.172 77.4643 325.172 79.539C325.172 80.9523 324.913 82.1043 324.396 82.995C323.878 83.8803 323.1 84.5337 322.06 84.955C321.02 85.371 319.718 85.579 318.156 85.579ZM318.828 83.467C319.649 83.467 320.332 83.339 320.876 83.083C321.425 82.8217 321.833 82.403 322.1 81.827C322.372 81.2457 322.508 80.4803 322.508 79.531C322.508 78.587 322.369 77.827 322.092 77.251C321.82 76.6697 321.412 76.2483 320.868 75.987C320.324 75.7203 319.649 75.587 318.844 75.587C318.641 75.587 318.42 75.5977 318.18 75.619C317.94 75.6403 317.716 75.6697 317.508 75.707V83.411C317.726 83.4323 317.942 83.4483 318.156 83.459C318.374 83.4643 318.598 83.467 318.828 83.467Z" fill="#5DF0E6"/>
<path d="M320.684 188.758C319.702 188.758 318.83 188.643 318.068 188.414C317.305 188.179 316.657 187.819 316.124 187.334C315.596 186.843 315.196 186.217 314.924 185.454C314.652 184.691 314.516 183.777 314.516 182.71C314.516 181.355 314.761 180.227 315.252 179.326C315.742 178.419 316.457 177.742 317.396 177.294C318.334 176.841 319.473 176.614 320.812 176.614C321.265 176.614 321.702 176.638 322.124 176.686C322.545 176.729 322.956 176.798 323.356 176.894V179.038C322.982 178.947 322.601 178.878 322.212 178.83C321.828 178.782 321.43 178.758 321.02 178.758C320.166 178.758 319.46 178.891 318.9 179.158C318.345 179.419 317.929 179.838 317.652 180.414C317.374 180.99 317.236 181.745 317.236 182.678C317.236 183.643 317.372 184.414 317.644 184.99C317.921 185.561 318.332 185.974 318.876 186.23C319.425 186.486 320.11 186.614 320.932 186.614C321.337 186.614 321.74 186.582 322.14 186.518C322.54 186.449 322.945 186.355 323.356 186.238V188.374C322.977 188.491 322.556 188.585 322.092 188.654C321.633 188.723 321.164 188.758 320.684 188.758Z" fill="#5DF0E6"/>
<path d="M322.204 313.001L319.316 308.737L317.812 306.865L313.876 301.161H316.756L319.348 304.953L320.86 306.841L325.076 313.001H322.204ZM313.588 313.001L317.812 306.865L319.348 304.953L321.94 301.161H324.748L320.86 306.841L319.316 308.737L316.428 313.001H313.588Z" fill="#5DF0E6"/>
<path d="M360.138 418.282V406.442H362.738V416.122H368.178V418.282H360.138Z" fill="#5DF0E6"/>
<path d="M358.575 244.379V232.539H361.175V242.219H366.615V244.379H358.575ZM369.274 244.379V234.051L370.202 234.931L366.586 237.427V235.003L370.202 232.499H371.874V244.379H369.274Z" fill="#5DF0E6"/>
<path d="M127.329 456.427V480.896M164.241 456.427V480.896M113.228 477.993H174.817" stroke="#A0FFF9" stroke-width="0.25"/>
<path d="M301.982 96.7441H309.348L305.665 115.159L301.982 96.7441Z" fill="#5DF0E6"/>
<path d="M301.982 226.475H309.348L305.665 244.89L301.982 226.475Z" fill="#5DF0E6"/>
<path d="M301.982 365.095H309.348L305.665 383.51L301.982 365.095Z" fill="#5DF0E6"/>
<path d="M342.755 365.095H350.121L346.438 383.51L342.755 365.095Z" fill="#5DF0E6"/>
<path d="M342.755 435.887H350.121L346.438 454.302L342.755 435.887Z" fill="#5DF0E6"/>
<path d="M81.0468 500.624L81.0468 507.99L62.6315 504.307L81.0468 500.624Z" fill="#5DF0E6"/>
<path d="M182.478 474.209L182.478 481.575L164.063 477.892L182.478 474.209Z" fill="#5DF0E6"/>
<path d="M25.76 26.7363L25.76 34.1024L7.34476 30.4194L25.76 26.7363Z" fill="#5DF0E6"/>
<path d="M265.554 34.1025L265.554 26.7364L283.969 30.4195L265.554 34.1025Z" fill="#5DF0E6"/>
<path d="M209.223 507.99L209.223 500.624L227.638 504.307L209.223 507.99Z" fill="#5DF0E6"/>
<path d="M108.622 481.576L108.622 474.21L127.038 477.893L108.622 481.576Z" fill="#5DF0E6"/>
<path d="M350.121 130.654L342.755 130.654L346.438 112.239L350.121 130.654Z" fill="#5DF0E6"/>
<path d="M350.121 400.648L342.755 400.648L346.438 382.233L350.121 400.648Z" fill="#5DF0E6"/>
<path d="M309.348 263.305L301.982 263.305L305.665 244.89L309.348 263.305Z" fill="#5DF0E6"/>
<path d="M309.348 130.333L301.982 130.333L305.665 111.917L309.348 130.333Z" fill="#5DF0E6"/>
<path d="M309.348 71.8008L301.982 71.8008L305.665 53.3855L309.348 71.8008Z" fill="#5DF0E6"/>
<g filter="url(#filter0_d_94_3744)">
<path d="M233.147 306.07V190.879C230.051 164.559 208.53 111.917 147.218 111.917C120.278 112.537 65.0981 129.197 59.8959 190.879V306.07M64.8453 294.294V277.268C68.5305 272.551 80.854 263.117 100.666 263.117M64.8453 294.294C68.162 301.517 78.5986 316.272 93.8112 317.511C112.827 319.058 175.845 319.28 187.121 317.511C198.078 315.792 217.77 314.282 225.4 295.944C225.623 295.409 225.836 294.858 226.037 294.294M64.8453 294.294L63.5186 312.867C67.1414 327.24 71.9209 336.526 96.9068 341.612C121.893 346.698 161.251 344.708 193.755 341.612C219.758 339.136 226.111 321.417 226.037 312.867V294.294M226.037 294.294L225.4 277.268C223.401 272.698 213.257 263.47 188.669 263.117" stroke="#A0FFF9" shape-rendering="crispEdges"/>
</g>
<g filter="url(#filter1_d_94_3744)">
<path d="M220.651 329.585V356.581C219.953 359.598 216.2 363.815 207.367 367.327M69.0925 329.585V354.619C73.3254 361.479 75.1691 365.299 84.4633 367.837M207.367 367.327C196.292 371.73 177.297 373.452 146.191 373.452C110.997 373.452 93.9068 370.416 84.4633 367.837M207.367 367.327C207.367 377.379 207.367 385.553 142.621 385.553C76.1363 385.553 86.4504 374.631 84.4633 367.837" stroke="#A0FFF9" shape-rendering="crispEdges"/>
</g>
<g filter="url(#filter2_d_94_3744)">
<path d="M60.8154 203.727H233.165" stroke="#A0FFF9" stroke-width="0.25"/>
</g>
<g filter="url(#filter3_d_94_3744)">
<path d="M233.113 305.127L226.701 311.983M222.278 352.889C224.711 352.299 231.123 353.243 237.314 361.733H262.742C269.818 360.259 283.969 354.083 283.969 341.17V160.299C274.98 124.678 234.736 53.4365 145.677 53.4365C106.453 55.0192 24.0997 78.6073 8.47534 160.299V341.17C9.29043 348.024 13.7987 361.733 25.311 361.733C36.8232 361.733 49.1295 361.733 53.8436 361.733C55.663 357.721 61.1876 350.014 68.7301 351.292M59.7982 305.127L62.7755 311.983" stroke="#A0FFF9"/>
</g>
<g filter="url(#filter4_d_94_3744)">
<path d="M123.571 282.388L103.551 272.837V256.492L116.408 244.921L133.122 243.268H152.957L173.712 244.921L186.936 254.838V274.49L166.181 282.388H123.571Z" stroke="#A0FFF9" stroke-width="0.5" shape-rendering="crispEdges"/>
</g>
<g filter="url(#filter5_d_94_3744)">
<path d="M124.489 281.652V262.001C135.656 260.384 156.202 261.327 165.079 262.001M165.079 262.001V281.652M165.079 262.001C168.998 259.674 178.854 255.095 186.936 255.389" stroke="#A0FFF9" stroke-width="0.5"/>
</g>
<g filter="url(#filter6_d_94_3744)">
<path d="M124.673 262.186C120.999 259.859 111.669 255.536 103.734 256.859M187.403 269.937C203.222 272.027 225.934 278.174 190.231 286.042C178.254 288.061 144.778 290.888 106.693 286.042C59.0859 279.985 94.1814 268.544 103.734 269.937" stroke="#A0FFF9" stroke-width="0.5"/>
</g>
<g filter="url(#filter7_d_94_3744)">
<path d="M126.877 385.792V397.424M164.245 385.792V397.424M126.877 397.424H164.245M126.877 397.424V400.565M164.245 397.424V400.565M164.245 400.565V453.974C154.965 456.129 134.709 456.221 126.877 453.974V400.565M164.245 400.565H126.877" stroke="#A0FFF9" stroke-width="0.25" shape-rendering="crispEdges"/>
</g>
<g filter="url(#filter8_d_94_3744)">
<path d="M126.875 404.448H164.081M164.081 408.273H126.875M126.875 412.098H164.081M164.081 415.634H126.875" stroke="#A0FFF9" stroke-width="0.25"/>
</g>
<g filter="url(#filter9_d_94_3744)">
<path d="M127.038 419.463H164.245M164.245 423.289H127.038M127.038 427.114H164.245M164.245 430.649H127.038" stroke="#A0FFF9" stroke-width="0.25"/>
</g>
<g filter="url(#filter10_d_94_3744)">
<path d="M126.875 434.48H164.081M164.081 438.306H126.875M126.875 442.131H164.081M164.081 445.666H126.875" stroke="#A0FFF9" stroke-width="0.25"/>
</g>
<g filter="url(#filter11_d_94_3744)">
<path d="M126.919 449.234H164.063" stroke="#A0FFF9" stroke-width="0.25"/>
</g>
<path d="M81.5076 199.308L81.5076 207.585L60.8156 203.446L81.5076 199.308Z" fill="#5DF0E6"/>
<path d="M212.473 207.865L212.473 199.588L233.165 203.727L212.473 207.865Z" fill="#5DF0E6"/>
<path d="M7.34473 24.6274V140.993M283.779 24.6274V140.993M172.152 112.56H359.601" stroke="#A0FFF9" stroke-width="0.25"/>
<path d="M359.074 383.202H205.324M359.074 454.286H168.466M227.966 327.916V510.099M62.6315 323.703V510.099" stroke="#A0FFF9" stroke-width="0.25"/>
<path d="M186.369 54.113H312.739M312.739 245.248H181.104M305.368 47.7945V392.679M346.438 109.401V462.184M58.4196 504.307H232.705M0.5 30.4194H291.678" stroke="#A0FFF9" stroke-width="0.25"/>
<g filter="url(#filter12_d_94_3744)">
<circle cx="146.787" cy="82.8121" r="28.9269" stroke="#A0FFF9" shape-rendering="crispEdges"/>
</g>
<defs>
<filter id="filter0_d_94_3744" x="55.3959" y="111.417" width="182.251" height="241.807" filterUnits="userSpaceOnUse" color-interpolation-filters="sRGB">
<feFlood flood-opacity="0" result="BackgroundImageFix"/>
<feColorMatrix in="SourceAlpha" type="matrix" values="0 0 0 0 0 0 0 0 0 0 0 0 0 0 0 0 0 0 127 0" result="hardAlpha"/>
<feOffset dy="4"/>
<feGaussianBlur stdDeviation="2"/>
<feComposite in2="hardAlpha" operator="out"/>
<feColorMatrix type="matrix" values="0 0 0 0 0.629167 0 0 0 0 1 0 0 0 0 0.975863 0 0 0 1 0"/>
<feBlend mode="normal" in2="BackgroundImageFix" result="effect1_dropShadow_94_3744"/>
<feBlend mode="normal" in="SourceGraphic" in2="effect1_dropShadow_94_3744" result="shape"/>
</filter>
<filter id="filter1_d_94_3744" x="64.5925" y="329.585" width="160.559" height="64.4678" filterUnits="userSpaceOnUse" color-interpolation-filters="sRGB">
<feFlood flood-opacity="0" result="BackgroundImageFix"/>
<feColorMatrix in="SourceAlpha" type="matrix" values="0 0 0 0 0 0 0 0 0 0 0 0 0 0 0 0 0 0 127 0" result="hardAlpha"/>
<feOffset dy="4"/>
<feGaussianBlur stdDeviation="2"/>
<feComposite in2="hardAlpha" operator="out"/>
<feColorMatrix type="matrix" values="0 0 0 0 0.629167 0 0 0 0 1 0 0 0 0 0.975863 0 0 0 1 0"/>
<feBlend mode="normal" in2="BackgroundImageFix" result="effect1_dropShadow_94_3744"/>
<feBlend mode="normal" in="SourceGraphic" in2="effect1_dropShadow_94_3744" result="shape"/>
</filter>
<filter id="filter2_d_94_3744" x="56.8154" y="203.602" width="180.349" height="8.25" filterUnits="userSpaceOnUse" color-interpolation-filters="sRGB">
<feFlood flood-opacity="0" result="BackgroundImageFix"/>
<feColorMatrix in="SourceAlpha" type="matrix" values="0 0 0 0 0 0 0 0 0 0 0 0 0 0 0 0 0 0 127 0" result="hardAlpha"/>
<feOffset dy="4"/>
<feGaussianBlur stdDeviation="2"/>
<feComposite in2="hardAlpha" operator="out"/>
<feColorMatrix type="matrix" values="0 0 0 0 0.629167 0 0 0 0 1 0 0 0 0 0.975863 0 0 0 1 0"/>
<feBlend mode="normal" in2="BackgroundImageFix" result="effect1_dropShadow_94_3744"/>
<feBlend mode="normal" in="SourceGraphic" in2="effect1_dropShadow_94_3744" result="shape"/>
</filter>
<filter id="filter3_d_94_3744" x="3.97534" y="52.9365" width="284.494" height="317.297" filterUnits="userSpaceOnUse" color-interpolation-filters="sRGB">
<feFlood flood-opacity="0" result="BackgroundImageFix"/>
<feColorMatrix in="SourceAlpha" type="matrix" values="0 0 0 0 0 0 0 0 0 0 0 0 0 0 0 0 0 0 127 0" result="hardAlpha"/>
<feOffset dy="4"/>
<feGaussianBlur stdDeviation="2"/>
<feComposite in2="hardAlpha" operator="out"/>
<feColorMatrix type="matrix" values="0 0 0 0 0.629167 0 0 0 0 1 0 0 0 0 0.975863 0 0 0 1 0"/>
<feBlend mode="normal" in2="BackgroundImageFix" result="effect1_dropShadow_94_3744"/>
<feBlend mode="normal" in="SourceGraphic" in2="effect1_dropShadow_94_3744" result="shape"/>
</filter>
<filter id="filter4_d_94_3744" x="99.3013" y="243.018" width="91.8843" height="47.6201" filterUnits="userSpaceOnUse" color-interpolation-filters="sRGB">
<feFlood flood-opacity="0" result="BackgroundImageFix"/>
<feColorMatrix in="SourceAlpha" type="matrix" values="0 0 0 0 0 0 0 0 0 0 0 0 0 0 0 0 0 0 127 0" result="hardAlpha"/>
<feOffset dy="4"/>
<feGaussianBlur stdDeviation="2"/>
<feComposite in2="hardAlpha" operator="out"/>
<feColorMatrix type="matrix" values="0 0 0 0 0.629167 0 0 0 0 1 0 0 0 0 0.975863 0 0 0 1 0"/>
<feBlend mode="normal" in2="BackgroundImageFix" result="effect1_dropShadow_94_3744"/>
<feBlend mode="normal" in="SourceGraphic" in2="effect1_dropShadow_94_3744" result="shape"/>
</filter>
<filter id="filter5_d_94_3744" x="120.239" y="255.125" width="70.7056" height="34.5269" filterUnits="userSpaceOnUse" color-interpolation-filters="sRGB">
<feFlood flood-opacity="0" result="BackgroundImageFix"/>
<feColorMatrix in="SourceAlpha" type="matrix" values="0 0 0 0 0 0 0 0 0 0 0 0 0 0 0 0 0 0 127 0" result="hardAlpha"/>
<feOffset dy="4"/>
<feGaussianBlur stdDeviation="2"/>
<feComposite in2="hardAlpha" operator="out"/>
<feColorMatrix type="matrix" values="0 0 0 0 0.629167 0 0 0 0 1 0 0 0 0 0.975863 0 0 0 1 0"/>
<feBlend mode="normal" in2="BackgroundImageFix" result="effect1_dropShadow_94_3744"/>
<feBlend mode="normal" in="SourceGraphic" in2="effect1_dropShadow_94_3744" result="shape"/>
</filter>
<filter id="filter6_d_94_3744" x="78.0552" y="256.363" width="135.418" height="40.6055" filterUnits="userSpaceOnUse" color-interpolation-filters="sRGB">
<feFlood flood-opacity="0" result="BackgroundImageFix"/>
<feColorMatrix in="SourceAlpha" type="matrix" values="0 0 0 0 0 0 0 0 0 0 0 0 0 0 0 0 0 0 127 0" result="hardAlpha"/>
<feOffset dy="4"/>
<feGaussianBlur stdDeviation="2"/>
<feComposite in2="hardAlpha" operator="out"/>
<feColorMatrix type="matrix" values="0 0 0 0 0.629167 0 0 0 0 1 0 0 0 0 0.975863 0 0 0 1 0"/>
<feBlend mode="normal" in2="BackgroundImageFix" result="effect1_dropShadow_94_3744"/>
<feBlend mode="normal" in="SourceGraphic" in2="effect1_dropShadow_94_3744" result="shape"/>
</filter>
<filter id="filter7_d_94_3744" x="122.752" y="385.792" width="45.618" height="77.9585" filterUnits="userSpaceOnUse" color-interpolation-filters="sRGB">
<feFlood flood-opacity="0" result="BackgroundImageFix"/>
<feColorMatrix in="SourceAlpha" type="matrix" values="0 0 0 0 0 0 0 0 0 0 0 0 0 0 0 0 0 0 127 0" result="hardAlpha"/>
<feOffset dy="4"/>
<feGaussianBlur stdDeviation="2"/>
<feComposite in2="hardAlpha" operator="out"/>
<feColorMatrix type="matrix" values="0 0 0 0 0.629167 0 0 0 0 1 0 0 0 0 0.975863 0 0 0 1 0"/>
<feBlend mode="normal" in2="BackgroundImageFix" result="effect1_dropShadow_94_3744"/>
<feBlend mode="normal" in="SourceGraphic" in2="effect1_dropShadow_94_3744" result="shape"/>
</filter>
<filter id="filter8_d_94_3744" x="122.875" y="404.323" width="45.2069" height="19.436" filterUnits="userSpaceOnUse" color-interpolation-filters="sRGB">
<feFlood flood-opacity="0" result="BackgroundImageFix"/>
<feColorMatrix in="SourceAlpha" type="matrix" values="0 0 0 0 0 0 0 0 0 0 0 0 0 0 0 0 0 0 127 0" result="hardAlpha"/>
<feOffset dy="4"/>
<feGaussianBlur stdDeviation="2"/>
<feComposite in2="hardAlpha" operator="out"/>
<feColorMatrix type="matrix" values="0 0 0 0 0.629167 0 0 0 0 1 0 0 0 0 0.975863 0 0 0 1 0"/>
<feBlend mode="normal" in2="BackgroundImageFix" result="effect1_dropShadow_94_3744"/>
<feBlend mode="normal" in="SourceGraphic" in2="effect1_dropShadow_94_3744" result="shape"/>
</filter>
<filter id="filter9_d_94_3744" x="123.038" y="419.338" width="45.2069" height="19.436" filterUnits="userSpaceOnUse" color-interpolation-filters="sRGB">
<feFlood flood-opacity="0" result="BackgroundImageFix"/>
<feColorMatrix in="SourceAlpha" type="matrix" values="0 0 0 0 0 0 0 0 0 0 0 0 0 0 0 0 0 0 127 0" result="hardAlpha"/>
<feOffset dy="4"/>
<feGaussianBlur stdDeviation="2"/>
<feComposite in2="hardAlpha" operator="out"/>
<feColorMatrix type="matrix" values="0 0 0 0 0.629167 0 0 0 0 1 0 0 0 0 0.975863 0 0 0 1 0"/>
<feBlend mode="normal" in2="BackgroundImageFix" result="effect1_dropShadow_94_3744"/>
<feBlend mode="normal" in="SourceGraphic" in2="effect1_dropShadow_94_3744" result="shape"/>
</filter>
<filter id="filter10_d_94_3744" x="122.875" y="434.355" width="45.2069" height="19.436" filterUnits="userSpaceOnUse" color-interpolation-filters="sRGB">
<feFlood flood-opacity="0" result="BackgroundImageFix"/>
<feColorMatrix in="SourceAlpha" type="matrix" values="0 0 0 0 0 0 0 0 0 0 0 0 0 0 0 0 0 0 127 0" result="hardAlpha"/>
<feOffset dy="4"/>
<feGaussianBlur stdDeviation="2"/>
<feComposite in2="hardAlpha" operator="out"/>
<feColorMatrix type="matrix" values="0 0 0 0 0.629167 0 0 0 0 1 0 0 0 0 0.975863 0 0 0 1 0"/>
<feBlend mode="normal" in2="BackgroundImageFix" result="effect1_dropShadow_94_3744"/>
<feBlend mode="normal" in="SourceGraphic" in2="effect1_dropShadow_94_3744" result="shape"/>
</filter>
<filter id="filter11_d_94_3744" x="122.919" y="449.109" width="45.1442" height="8.25" filterUnits="userSpaceOnUse" color-interpolation-filters="sRGB">
<feFlood flood-opacity="0" result="BackgroundImageFix"/>
<feColorMatrix in="SourceAlpha" type="matrix" values="0 0 0 0 0 0 0 0 0 0 0 0 0 0 0 0 0 0 127 0" result="hardAlpha"/>
<feOffset dy="4"/>
<feGaussianBlur stdDeviation="2"/>
<feComposite in2="hardAlpha" operator="out"/>
<feColorMatrix type="matrix" values="0 0 0 0 0.629167 0 0 0 0 1 0 0 0 0 0.975863 0 0 0 1 0"/>
<feBlend mode="normal" in2="BackgroundImageFix" result="effect1_dropShadow_94_3744"/>
<feBlend mode="normal" in="SourceGraphic" in2="effect1_dropShadow_94_3744" result="shape"/>
</filter>
<filter id="filter12_d_94_3744" x="113.36" y="53.3853" width="66.8538" height="66.854" filterUnits="userSpaceOnUse" color-interpolation-filters="sRGB">
<feFlood flood-opacity="0" result="BackgroundImageFix"/>
<feColorMatrix in="SourceAlpha" type="matrix" values="0 0 0 0 0 0 0 0 0 0 0 0 0 0 0 0 0 0 127 0" result="hardAlpha"/>
<feOffset dy="4"/>
<feGaussianBlur stdDeviation="2"/>
<feComposite in2="hardAlpha" operator="out"/>
<feColorMatrix type="matrix" values="0 0 0 0 0.629167 0 0 0 0 1 0 0 0 0 0.975863 0 0 0 1 0"/>
<feBlend mode="normal" in2="BackgroundImageFix" result="effect1_dropShadow_94_3744"/>
<feBlend mode="normal" in="SourceGraphic" in2="effect1_dropShadow_94_3744" result="shape"/>
</filter>
</defs>
</svg>
