<svg width="581" height="472" viewBox="0 0 581 472" fill="none" xmlns="http://www.w3.org/2000/svg">
<path d="M29.0187 376.695L34.7861 376.695L31.9024 391.113L29.0187 376.695Z" fill="#5DF0E6"/>
<path d="M35.0171 32.8489L29.2498 32.8489L32.1334 18.4305L35.0171 32.8489Z" fill="#5DF0E6"/>
<path d="M415.563 21.2316L419.405 16.93L428.238 28.6851L415.563 21.2316Z" fill="#5DF0E6"/>
<path d="M534.481 118.522L530.691 122.87L521.718 111.222L534.481 118.522Z" fill="#5DF0E6"/>
<path d="M557.035 306.491L552.793 302.584L564.681 293.931L557.035 306.491Z" fill="#5DF0E6"/>
<path d="M417.771 450.958L422.012 454.867L410.119 463.514L417.771 450.958Z" fill="#5DF0E6"/>
<path d="M19.0695 207.446L5.75892 203.115L5.76819 198.858L19.0975 194.585L19.0912 197.465L7.04117 201.164L7.04184 200.858L19.0757 204.602L19.0695 207.446ZM15.521 204.45L13.1914 203.815L13.2036 198.199L15.536 197.583L15.521 204.45Z" fill="#5DF0E6"/>
<path d="M481.181 377.426C480.443 378.248 479.692 378.892 478.927 379.358C478.158 379.82 477.369 380.092 476.562 380.174C475.755 380.247 474.929 380.111 474.086 379.766C473.243 379.421 472.375 378.847 471.482 378.046C470.348 377.028 469.588 375.975 469.202 374.887C468.812 373.795 468.782 372.687 469.112 371.565C469.438 370.438 470.103 369.315 471.109 368.194C471.45 367.814 471.799 367.466 472.155 367.149C472.508 366.829 472.874 366.537 473.255 366.274L475.05 367.885C474.694 368.13 474.349 368.397 474.017 368.687C473.688 368.972 473.369 369.287 473.061 369.631C472.419 370.345 472 371.037 471.803 371.706C471.605 372.367 471.643 373.03 471.916 373.695C472.19 374.36 472.718 375.043 473.499 375.744C474.308 376.47 475.055 376.935 475.742 377.14C476.428 377.337 477.083 377.303 477.706 377.04C478.333 376.773 478.955 376.295 479.572 375.607C479.877 375.268 480.152 374.907 480.399 374.524C480.642 374.137 480.868 373.727 481.079 373.295L482.867 374.9C482.681 375.306 482.442 375.728 482.152 376.169C481.865 376.605 481.541 377.024 481.181 377.426Z" fill="#5DF0E6"/>
<path d="M474.349 63.2888C474.084 63.0363 473.801 62.7503 473.501 62.4308C473.2 62.1198 472.904 61.796 472.612 61.4593C472.319 61.1311 472.053 60.815 471.812 60.511L480.721 51.1605C481.082 51.3809 481.458 51.6307 481.846 51.9099C482.239 52.1847 482.628 52.4809 483.014 52.7983C483.408 53.1156 483.781 53.4418 484.132 53.7771C485.088 54.6876 485.773 55.5304 486.186 56.3055C486.608 57.0804 486.772 57.8043 486.678 58.4771C486.588 59.1456 486.257 59.7795 485.686 60.379C485.347 60.7352 484.965 60.997 484.54 61.1643C484.124 61.3314 483.689 61.3928 483.233 61.3487C482.778 61.3045 482.329 61.1414 481.885 60.8593L481.972 60.7808C482.502 61.4513 482.763 62.1516 482.755 62.8817C482.756 63.6116 482.431 64.3176 481.781 64.9996C481.355 65.447 480.889 65.766 480.385 65.9564C479.884 66.1425 479.331 66.1793 478.726 66.0666C478.125 65.9496 477.46 65.6644 476.732 65.2109C476.012 64.7572 475.218 64.1165 474.349 63.2888ZM476.387 62.2846C476.952 62.8226 477.443 63.1948 477.859 63.4012C478.28 63.6117 478.653 63.6812 478.978 63.6096C479.308 63.5423 479.619 63.3544 479.913 63.0459C480.356 62.5811 480.533 62.1036 480.445 61.6135C480.365 61.1231 479.995 60.5634 479.335 59.9343L477.524 58.2084L479.032 56.625L480.642 58.1585C481.072 58.5682 481.458 58.8495 481.802 59.0025C482.153 59.1553 482.473 59.1942 482.759 59.1194C483.05 59.0487 483.328 58.8743 483.593 58.5963C484.011 58.1576 484.174 57.708 484.083 57.2476C483.995 56.7829 483.61 56.2257 482.928 55.5759C482.681 55.34 482.442 55.1336 482.213 54.9566C481.988 54.7753 481.759 54.6069 481.526 54.4512L475.225 61.065C475.426 61.2978 475.617 61.5096 475.8 61.7004C475.983 61.8912 476.179 62.0859 476.387 62.2846Z" fill="#5DF0E6"/>
<mask id="path-10-inside-1_79_418" fill="white">
<path d="M179.233 212.035C179.233 149.356 230.045 98.5439 292.725 98.5439C355.405 98.5439 406.217 149.356 406.217 212.035C406.217 274.715 355.405 325.527 292.725 325.527C230.045 325.527 179.233 274.715 179.233 212.035ZM402.83 212.035C402.83 151.226 353.534 101.93 292.725 101.93C231.915 101.93 182.62 151.226 182.62 212.035C182.62 272.845 231.915 322.141 292.725 322.141C353.534 322.141 402.83 272.845 402.83 212.035Z"/>
</mask>
<path d="M179.233 212.035C179.233 149.356 230.045 98.5439 292.725 98.5439C355.405 98.5439 406.217 149.356 406.217 212.035C406.217 274.715 355.405 325.527 292.725 325.527C230.045 325.527 179.233 274.715 179.233 212.035ZM402.83 212.035C402.83 151.226 353.534 101.93 292.725 101.93C231.915 101.93 182.62 151.226 182.62 212.035C182.62 272.845 231.915 322.141 292.725 322.141C353.534 322.141 402.83 272.845 402.83 212.035Z" fill="#5DF0E6" stroke="#5DF0E6" stroke-width="2" mask="url(#path-10-inside-1_79_418)"/>
<circle cx="299.298" cy="80.4093" r="49.6398" transform="rotate(-180 299.298 80.4093)" fill="#1C1C1C" stroke="#5DF0E6"/>
<circle cx="187.254" cy="143.479" r="49.6398" transform="rotate(-180 187.254 143.479)" fill="#1C1C1C" stroke="#5DF0E6"/>
<circle cx="189.801" cy="270.678" r="49.6398" transform="rotate(-180 189.801 270.678)" fill="#1C1C1C" stroke="#5DF0E6"/>
<circle cx="299.298" cy="329.484" r="49.6398" transform="rotate(-180 299.298 329.484)" fill="#1C1C1C" stroke="#5DF0E6"/>
<circle cx="408.794" cy="270.678" r="49.6398" transform="rotate(-180 408.794 270.678)" fill="#1C1C1C" stroke="#5DF0E6"/>
<circle cx="300.14" cy="205.14" r="49.6398" transform="rotate(-180 300.14 205.14)" fill="#1C1C1C" stroke="#5DF0E6"/>
<circle cx="408.794" cy="143.479" r="49.6398" transform="rotate(-180 408.794 143.479)" fill="#1C1C1C" stroke="#5DF0E6"/>
<g filter="url(#filter0_d_79_418)">
<circle cx="191.408" cy="269.653" r="11.6746" transform="rotate(-180 191.408 269.653)" stroke="#5DF0E6"/>
<circle cx="141.918" cy="269.653" r="11.6746" transform="rotate(-180 141.918 269.653)" stroke="#5DF0E6"/>
<circle cx="148.956" cy="294.002" r="11.6746" transform="rotate(-180 148.956 294.002)" stroke="#5DF0E6"/>
<circle cx="166.267" cy="312.303" r="11.6746" transform="rotate(-180 166.267 312.303)" stroke="#5DF0E6"/>
<circle cx="169.565" cy="281.827" r="11.6746" transform="rotate(-180 169.565 281.827)" stroke="#5DF0E6"/>
<circle cx="167.059" cy="257.478" r="11.6746" transform="rotate(-180 167.059 257.478)" stroke="#5DF0E6"/>
<circle cx="145.215" cy="245.304" r="11.6746" transform="rotate(-180 145.215 245.304)" stroke="#5DF0E6"/>
<circle cx="164.511" cy="227.003" r="11.6746" transform="rotate(-180 164.511 227.003)" stroke="#5DF0E6"/>
<circle cx="188.861" cy="245.304" r="11.6746" transform="rotate(-180 188.861 245.304)" stroke="#5DF0E6"/>
<circle cx="188.861" cy="220.955" r="11.6746" transform="rotate(-180 188.861 220.955)" stroke="#5DF0E6"/>
<circle cx="188.861" cy="294.002" r="11.6746" transform="rotate(-180 188.861 294.002)" stroke="#5DF0E6"/>
<circle cx="188.861" cy="318.352" r="11.6746" transform="rotate(-180 188.861 318.352)" stroke="#5DF0E6"/>
<circle cx="213.21" cy="312.303" r="11.6746" transform="rotate(-180 213.21 312.303)" stroke="#5DF0E6"/>
<circle cx="232.074" cy="295.41" r="11.6746" transform="rotate(-180 232.074 295.41)" stroke="#5DF0E6"/>
<circle cx="237.559" cy="268.614" r="11.6746" transform="rotate(-180 237.559 268.614)" stroke="#5DF0E6"/>
<circle cx="229.676" cy="245.304" r="11.6746" transform="rotate(-180 229.676 245.304)" stroke="#5DF0E6"/>
<circle cx="211.656" cy="227.003" r="11.6746" transform="rotate(-180 211.656 227.003)" stroke="#5DF0E6"/>
<circle cx="211.656" cy="260.503" r="11.6746" transform="rotate(-180 211.656 260.503)" stroke="#5DF0E6"/>
<circle cx="213.21" cy="284.852" r="11.6746" transform="rotate(-180 213.21 284.852)" stroke="#5DF0E6"/>
</g>
<g filter="url(#filter1_d_79_418)">
<circle cx="300.968" cy="329.487" r="11.6746" transform="rotate(-180 300.968 329.487)" stroke="#5DF0E6"/>
<circle cx="251.477" cy="329.487" r="11.6746" transform="rotate(-180 251.477 329.487)" stroke="#5DF0E6"/>
<circle cx="258.516" cy="353.837" r="11.6746" transform="rotate(-180 258.516 353.837)" stroke="#5DF0E6"/>
<circle cx="275.827" cy="372.138" r="11.6746" transform="rotate(-180 275.827 372.138)" stroke="#5DF0E6"/>
<circle cx="279.124" cy="341.662" r="11.6746" transform="rotate(-180 279.124 341.662)" stroke="#5DF0E6"/>
<circle cx="276.619" cy="317.313" r="11.6746" transform="rotate(-180 276.619 317.313)" stroke="#5DF0E6"/>
<circle cx="254.775" cy="305.138" r="11.6746" transform="rotate(-180 254.775 305.138)" stroke="#5DF0E6"/>
<circle cx="274.071" cy="286.837" r="11.6746" transform="rotate(-180 274.071 286.837)" stroke="#5DF0E6"/>
<circle cx="298.42" cy="305.138" r="11.6746" transform="rotate(-180 298.42 305.138)" stroke="#5DF0E6"/>
<circle cx="298.42" cy="280.789" r="11.6746" transform="rotate(-180 298.42 280.789)" stroke="#5DF0E6"/>
<circle cx="298.42" cy="353.837" r="11.6746" transform="rotate(-180 298.42 353.837)" stroke="#5DF0E6"/>
<circle cx="298.42" cy="378.186" r="11.6746" transform="rotate(-180 298.42 378.186)" stroke="#5DF0E6"/>
<circle cx="322.77" cy="372.138" r="11.6746" transform="rotate(-180 322.77 372.138)" stroke="#5DF0E6"/>
<circle cx="341.634" cy="355.245" r="11.6746" transform="rotate(-180 341.634 355.245)" stroke="#5DF0E6"/>
<circle cx="347.119" cy="328.449" r="11.6746" transform="rotate(-180 347.119 328.449)" stroke="#5DF0E6"/>
<circle cx="339.235" cy="305.138" r="11.6746" transform="rotate(-180 339.235 305.138)" stroke="#5DF0E6"/>
<circle cx="321.216" cy="286.837" r="11.6746" transform="rotate(-180 321.216 286.837)" stroke="#5DF0E6"/>
<circle cx="321.216" cy="320.338" r="11.6746" transform="rotate(-180 321.216 320.338)" stroke="#5DF0E6"/>
<circle cx="322.77" cy="344.687" r="11.6746" transform="rotate(-180 322.77 344.687)" stroke="#5DF0E6"/>
</g>
<g filter="url(#filter2_d_79_418)">
<circle cx="411.331" cy="270.127" r="11.6746" transform="rotate(-180 411.331 270.127)" stroke="#5DF0E6"/>
<circle cx="361.841" cy="270.127" r="11.6746" transform="rotate(-180 361.841 270.127)" stroke="#5DF0E6"/>
<circle cx="368.88" cy="294.477" r="11.6746" transform="rotate(-180 368.88 294.477)" stroke="#5DF0E6"/>
<circle cx="386.19" cy="312.778" r="11.6746" transform="rotate(-180 386.19 312.778)" stroke="#5DF0E6"/>
<circle cx="389.488" cy="282.302" r="11.6746" transform="rotate(-180 389.488 282.302)" stroke="#5DF0E6"/>
<circle cx="386.982" cy="257.953" r="11.6746" transform="rotate(-180 386.982 257.953)" stroke="#5DF0E6"/>
<circle cx="365.139" cy="245.778" r="11.6746" transform="rotate(-180 365.139 245.778)" stroke="#5DF0E6"/>
<circle cx="384.435" cy="227.478" r="11.6746" transform="rotate(-180 384.435 227.478)" stroke="#5DF0E6"/>
<circle cx="408.784" cy="245.778" r="11.6746" transform="rotate(-180 408.784 245.778)" stroke="#5DF0E6"/>
<circle cx="408.784" cy="221.429" r="11.6746" transform="rotate(-180 408.784 221.429)" stroke="#5DF0E6"/>
<circle cx="408.784" cy="294.477" r="11.6746" transform="rotate(-180 408.784 294.477)" stroke="#5DF0E6"/>
<circle cx="408.784" cy="318.826" r="11.6746" transform="rotate(-180 408.784 318.826)" stroke="#5DF0E6"/>
<circle cx="433.133" cy="312.778" r="11.6746" transform="rotate(-180 433.133 312.778)" stroke="#5DF0E6"/>
<circle cx="451.997" cy="295.885" r="11.6746" transform="rotate(-180 451.997 295.885)" stroke="#5DF0E6"/>
<circle cx="457.482" cy="269.09" r="11.6746" transform="rotate(-180 457.482 269.09)" stroke="#5DF0E6"/>
<circle cx="449.599" cy="245.778" r="11.6746" transform="rotate(-180 449.599 245.778)" stroke="#5DF0E6"/>
<circle cx="431.579" cy="227.478" r="11.6746" transform="rotate(-180 431.579 227.478)" stroke="#5DF0E6"/>
<circle cx="431.579" cy="260.977" r="11.6746" transform="rotate(-180 431.579 260.977)" stroke="#5DF0E6"/>
<circle cx="433.133" cy="285.327" r="11.6746" transform="rotate(-180 433.133 285.327)" stroke="#5DF0E6"/>
</g>
<g filter="url(#filter3_d_79_418)">
<circle cx="411.331" cy="143.467" r="11.6746" transform="rotate(-180 411.331 143.467)" stroke="#5DF0E6"/>
<circle cx="361.841" cy="143.467" r="11.6746" transform="rotate(-180 361.841 143.467)" stroke="#5DF0E6"/>
<circle cx="368.88" cy="167.816" r="11.6746" transform="rotate(-180 368.88 167.816)" stroke="#5DF0E6"/>
<circle cx="386.19" cy="186.117" r="11.6746" transform="rotate(-180 386.19 186.117)" stroke="#5DF0E6"/>
<circle cx="389.488" cy="155.641" r="11.6746" transform="rotate(-180 389.488 155.641)" stroke="#5DF0E6"/>
<circle cx="386.982" cy="131.292" r="11.6746" transform="rotate(-180 386.982 131.292)" stroke="#5DF0E6"/>
<circle cx="365.139" cy="119.117" r="11.6746" transform="rotate(-180 365.139 119.117)" stroke="#5DF0E6"/>
<circle cx="384.435" cy="100.818" r="11.6746" transform="rotate(-180 384.435 100.818)" stroke="#5DF0E6"/>
<circle cx="408.784" cy="119.117" r="11.6746" transform="rotate(-180 408.784 119.117)" stroke="#5DF0E6"/>
<circle cx="408.784" cy="94.7682" r="11.6746" transform="rotate(-180 408.784 94.7682)" stroke="#5DF0E6"/>
<circle cx="408.784" cy="167.816" r="11.6746" transform="rotate(-180 408.784 167.816)" stroke="#5DF0E6"/>
<circle cx="408.784" cy="192.165" r="11.6746" transform="rotate(-180 408.784 192.165)" stroke="#5DF0E6"/>
<circle cx="433.133" cy="186.117" r="11.6746" transform="rotate(-180 433.133 186.117)" stroke="#5DF0E6"/>
<circle cx="451.997" cy="169.224" r="11.6746" transform="rotate(-180 451.997 169.224)" stroke="#5DF0E6"/>
<circle cx="457.482" cy="142.429" r="11.6746" transform="rotate(-180 457.482 142.429)" stroke="#5DF0E6"/>
<circle cx="449.599" cy="119.117" r="11.6746" transform="rotate(-180 449.599 119.117)" stroke="#5DF0E6"/>
<circle cx="431.579" cy="100.818" r="11.6746" transform="rotate(-180 431.579 100.818)" stroke="#5DF0E6"/>
<circle cx="431.579" cy="134.316" r="11.6746" transform="rotate(-180 431.579 134.316)" stroke="#5DF0E6"/>
<circle cx="433.133" cy="158.666" r="11.6746" transform="rotate(-180 433.133 158.666)" stroke="#5DF0E6"/>
</g>
<g filter="url(#filter4_d_79_418)">
<circle cx="303.515" cy="81.3587" r="11.6746" transform="rotate(-180 303.515 81.3587)" stroke="#5DF0E6"/>
<circle cx="254.025" cy="81.3587" r="11.6746" transform="rotate(-180 254.025 81.3587)" stroke="#5DF0E6"/>
<circle cx="261.064" cy="105.708" r="11.6746" transform="rotate(-180 261.064 105.708)" stroke="#5DF0E6"/>
<circle cx="278.374" cy="124.009" r="11.6746" transform="rotate(-180 278.374 124.009)" stroke="#5DF0E6"/>
<circle cx="281.672" cy="93.5331" r="11.6746" transform="rotate(-180 281.672 93.5331)" stroke="#5DF0E6"/>
<circle cx="279.166" cy="69.1839" r="11.6746" transform="rotate(-180 279.166 69.1839)" stroke="#5DF0E6"/>
<circle cx="257.323" cy="57.0092" r="11.6746" transform="rotate(-180 257.323 57.0092)" stroke="#5DF0E6"/>
<circle cx="276.619" cy="38.7093" r="11.6746" transform="rotate(-180 276.619 38.7093)" stroke="#5DF0E6"/>
<circle cx="300.968" cy="57.0092" r="11.6746" transform="rotate(-180 300.968 57.0092)" stroke="#5DF0E6"/>
<circle cx="300.968" cy="32.6602" r="11.6746" transform="rotate(-180 300.968 32.6602)" stroke="#5DF0E6"/>
<circle cx="300.968" cy="105.708" r="11.6746" transform="rotate(-180 300.968 105.708)" stroke="#5DF0E6"/>
<circle cx="300.968" cy="130.057" r="11.6746" transform="rotate(-180 300.968 130.057)" stroke="#5DF0E6"/>
<circle cx="325.317" cy="124.009" r="11.6746" transform="rotate(-180 325.317 124.009)" stroke="#5DF0E6"/>
<circle cx="344.181" cy="107.116" r="11.6746" transform="rotate(-180 344.181 107.116)" stroke="#5DF0E6"/>
<circle cx="349.666" cy="80.3206" r="11.6746" transform="rotate(-180 349.666 80.3206)" stroke="#5DF0E6"/>
<circle cx="341.783" cy="57.0092" r="11.6746" transform="rotate(-180 341.783 57.0092)" stroke="#5DF0E6"/>
<circle cx="323.763" cy="38.7093" r="11.6746" transform="rotate(-180 323.763 38.7093)" stroke="#5DF0E6"/>
<circle cx="323.763" cy="72.2082" r="11.6746" transform="rotate(-180 323.763 72.2082)" stroke="#5DF0E6"/>
<circle cx="325.317" cy="96.5577" r="11.6746" transform="rotate(-180 325.317 96.5577)" stroke="#5DF0E6"/>
</g>
<g filter="url(#filter5_d_79_418)">
<circle cx="190.604" cy="141.194" r="11.6746" transform="rotate(-180 190.604 141.194)" stroke="#5DF0E6"/>
<circle cx="141.114" cy="141.194" r="11.6746" transform="rotate(-180 141.114 141.194)" stroke="#5DF0E6"/>
<circle cx="148.153" cy="165.543" r="11.6746" transform="rotate(-180 148.153 165.543)" stroke="#5DF0E6"/>
<circle cx="165.463" cy="183.844" r="11.6746" transform="rotate(-180 165.463 183.844)" stroke="#5DF0E6"/>
<circle cx="168.761" cy="153.368" r="11.6746" transform="rotate(-180 168.761 153.368)" stroke="#5DF0E6"/>
<circle cx="166.255" cy="129.019" r="11.6746" transform="rotate(-180 166.255 129.019)" stroke="#5DF0E6"/>
<circle cx="144.411" cy="116.845" r="11.6746" transform="rotate(-180 144.411 116.845)" stroke="#5DF0E6"/>
<circle cx="163.708" cy="98.5438" r="11.6746" transform="rotate(-180 163.708 98.5438)" stroke="#5DF0E6"/>
<circle cx="188.057" cy="116.845" r="11.6746" transform="rotate(-180 188.057 116.845)" stroke="#5DF0E6"/>
<circle cx="188.057" cy="92.495" r="11.6746" transform="rotate(-180 188.057 92.495)" stroke="#5DF0E6"/>
<circle cx="188.057" cy="165.543" r="11.6746" transform="rotate(-180 188.057 165.543)" stroke="#5DF0E6"/>
<circle cx="188.057" cy="189.892" r="11.6746" transform="rotate(-180 188.057 189.892)" stroke="#5DF0E6"/>
<circle cx="212.406" cy="183.844" r="11.6746" transform="rotate(-180 212.406 183.844)" stroke="#5DF0E6"/>
<circle cx="231.27" cy="166.951" r="11.6746" transform="rotate(-180 231.27 166.951)" stroke="#5DF0E6"/>
<circle cx="236.755" cy="140.155" r="11.6746" transform="rotate(-180 236.755 140.155)" stroke="#5DF0E6"/>
<circle cx="228.872" cy="116.845" r="11.6746" transform="rotate(-180 228.872 116.845)" stroke="#5DF0E6"/>
<circle cx="210.852" cy="98.5438" r="11.6746" transform="rotate(-180 210.852 98.5438)" stroke="#5DF0E6"/>
<circle cx="210.852" cy="132.044" r="11.6746" transform="rotate(-180 210.852 132.044)" stroke="#5DF0E6"/>
<circle cx="212.406" cy="156.393" r="11.6746" transform="rotate(-180 212.406 156.393)" stroke="#5DF0E6"/>
</g>
<path d="M272.325 391.113L20.7915 391.113" stroke="#A0FFF9" stroke-width="0.5"/>
<path d="M272.325 18.4562L20.7915 18.4562" stroke="#A0FFF9" stroke-width="0.5"/>
<path d="M32.1334 401.408L32.1334 6.99988" stroke="#A0FFF9" stroke-width="0.5"/>
<path d="M467.308 173.202L524.04 108.372" stroke="#A0FFF9" stroke-width="0.5"/>
<path d="M374.016 90.9696L430.747 26.1388" stroke="#A0FFF9" stroke-width="0.5"/>
<path d="M541.557 128.611L406.217 9.66451" stroke="#A0FFF9" stroke-width="0.5"/>
<path d="M446.831 193.619L569.739 299.012" stroke="#A0FFF9" stroke-width="0.5"/>
<path d="M315.69 383.904L416 468.336" stroke="#A0FFF9" stroke-width="0.5"/>
<path d="M571.04 287.005L403.231 471.074" stroke="#A0FFF9" stroke-width="0.5"/>
<defs>
<filter id="filter0_d_79_418" x="109.743" y="188.78" width="159.991" height="161.746" filterUnits="userSpaceOnUse" color-interpolation-filters="sRGB">
<feFlood flood-opacity="0" result="BackgroundImageFix"/>
<feColorMatrix in="SourceAlpha" type="matrix" values="0 0 0 0 0 0 0 0 0 0 0 0 0 0 0 0 0 0 127 0" result="hardAlpha"/>
<feOffset/>
<feGaussianBlur stdDeviation="10"/>
<feComposite in2="hardAlpha" operator="out"/>
<feColorMatrix type="matrix" values="0 0 0 0 0.365647 0 0 0 0 0.940234 0 0 0 0 0.902835 0 0 0 1 0"/>
<feBlend mode="normal" in2="BackgroundImageFix" result="effect1_dropShadow_79_418"/>
<feBlend mode="normal" in="SourceGraphic" in2="effect1_dropShadow_79_418" result="shape"/>
</filter>
<filter id="filter1_d_79_418" x="219.303" y="248.614" width="159.991" height="161.746" filterUnits="userSpaceOnUse" color-interpolation-filters="sRGB">
<feFlood flood-opacity="0" result="BackgroundImageFix"/>
<feColorMatrix in="SourceAlpha" type="matrix" values="0 0 0 0 0 0 0 0 0 0 0 0 0 0 0 0 0 0 127 0" result="hardAlpha"/>
<feOffset/>
<feGaussianBlur stdDeviation="10"/>
<feComposite in2="hardAlpha" operator="out"/>
<feColorMatrix type="matrix" values="0 0 0 0 0.365647 0 0 0 0 0.940234 0 0 0 0 0.902835 0 0 0 1 0"/>
<feBlend mode="normal" in2="BackgroundImageFix" result="effect1_dropShadow_79_418"/>
<feBlend mode="normal" in="SourceGraphic" in2="effect1_dropShadow_79_418" result="shape"/>
</filter>
<filter id="filter2_d_79_418" x="329.666" y="189.254" width="159.991" height="161.746" filterUnits="userSpaceOnUse" color-interpolation-filters="sRGB">
<feFlood flood-opacity="0" result="BackgroundImageFix"/>
<feColorMatrix in="SourceAlpha" type="matrix" values="0 0 0 0 0 0 0 0 0 0 0 0 0 0 0 0 0 0 127 0" result="hardAlpha"/>
<feOffset/>
<feGaussianBlur stdDeviation="10"/>
<feComposite in2="hardAlpha" operator="out"/>
<feColorMatrix type="matrix" values="0 0 0 0 0.365647 0 0 0 0 0.940234 0 0 0 0 0.902835 0 0 0 1 0"/>
<feBlend mode="normal" in2="BackgroundImageFix" result="effect1_dropShadow_79_418"/>
<feBlend mode="normal" in="SourceGraphic" in2="effect1_dropShadow_79_418" result="shape"/>
</filter>
<filter id="filter3_d_79_418" x="329.666" y="62.5936" width="159.991" height="161.746" filterUnits="userSpaceOnUse" color-interpolation-filters="sRGB">
<feFlood flood-opacity="0" result="BackgroundImageFix"/>
<feColorMatrix in="SourceAlpha" type="matrix" values="0 0 0 0 0 0 0 0 0 0 0 0 0 0 0 0 0 0 127 0" result="hardAlpha"/>
<feOffset/>
<feGaussianBlur stdDeviation="10"/>
<feComposite in2="hardAlpha" operator="out"/>
<feColorMatrix type="matrix" values="0 0 0 0 0.365647 0 0 0 0 0.940234 0 0 0 0 0.902835 0 0 0 1 0"/>
<feBlend mode="normal" in2="BackgroundImageFix" result="effect1_dropShadow_79_418"/>
<feBlend mode="normal" in="SourceGraphic" in2="effect1_dropShadow_79_418" result="shape"/>
</filter>
<filter id="filter4_d_79_418" x="221.85" y="0.485596" width="159.991" height="161.746" filterUnits="userSpaceOnUse" color-interpolation-filters="sRGB">
<feFlood flood-opacity="0" result="BackgroundImageFix"/>
<feColorMatrix in="SourceAlpha" type="matrix" values="0 0 0 0 0 0 0 0 0 0 0 0 0 0 0 0 0 0 127 0" result="hardAlpha"/>
<feOffset/>
<feGaussianBlur stdDeviation="10"/>
<feComposite in2="hardAlpha" operator="out"/>
<feColorMatrix type="matrix" values="0 0 0 0 0.365647 0 0 0 0 0.940234 0 0 0 0 0.902835 0 0 0 1 0"/>
<feBlend mode="normal" in2="BackgroundImageFix" result="effect1_dropShadow_79_418"/>
<feBlend mode="normal" in="SourceGraphic" in2="effect1_dropShadow_79_418" result="shape"/>
</filter>
<filter id="filter5_d_79_418" x="108.939" y="60.3204" width="159.991" height="161.746" filterUnits="userSpaceOnUse" color-interpolation-filters="sRGB">
<feFlood flood-opacity="0" result="BackgroundImageFix"/>
<feColorMatrix in="SourceAlpha" type="matrix" values="0 0 0 0 0 0 0 0 0 0 0 0 0 0 0 0 0 0 127 0" result="hardAlpha"/>
<feOffset/>
<feGaussianBlur stdDeviation="10"/>
<feComposite in2="hardAlpha" operator="out"/>
<feColorMatrix type="matrix" values="0 0 0 0 0.365647 0 0 0 0 0.940234 0 0 0 0 0.902835 0 0 0 1 0"/>
<feBlend mode="normal" in2="BackgroundImageFix" result="effect1_dropShadow_79_418"/>
<feBlend mode="normal" in="SourceGraphic" in2="effect1_dropShadow_79_418" result="shape"/>
</filter>
</defs>
</svg>
