<svg width="561" height="679" viewBox="0 0 561 679" fill="none" xmlns="http://www.w3.org/2000/svg">
<g filter="url(#filter0_d_55_1187)">
<path d="M291.644 329.712C296.203 324.387 297.342 312.281 297.342 306.894C295.823 304.612 294.176 305.943 293.543 306.894L242.254 374.397C239.974 380.481 243.837 380.735 246.053 380.101C259.35 365.523 287.085 335.036 291.644 329.712Z" stroke="#A0FFF9" stroke-width="2"/>
<path d="M257.45 332.564L246.053 320.204C244.534 318.556 242.887 319.518 242.254 320.204C237.188 324.324 226.487 333.134 224.207 335.416C221.928 337.698 222.624 339.536 223.258 340.17C226.424 343.973 233.136 351.959 234.655 353.48C236.175 355.001 238.454 354.114 239.404 353.48L257.45 338.268C258.97 335.987 258.084 333.515 257.45 332.564Z" stroke="#A0FFF9" stroke-width="2"/>
<path d="M135.177 417.643C141.002 414.062 147.074 411.143 153.148 408.775M153.148 408.775L133.286 429.062M153.148 408.775C160.544 405.891 167.943 403.825 174.901 402.379M174.901 402.379C188.954 399.458 201.208 399.063 208.004 399.564C220.867 408.699 224.083 423.67 224.083 430.014C224.398 436.992 221.056 453.231 205.167 462.366C192.241 462.049 159.958 457.799 134.232 443.335L174.901 402.379Z" stroke="#A0FFF9" stroke-width="2"/>
<path d="M143.54 447.744L192.06 399.38M208.234 399.38L154.956 452.485M215.845 406.018L165.422 455.33M220.602 415.501L177.79 458.175M224.408 426.881L190.158 460.072M221.554 443.002C221.554 443.761 208.868 455.962 202.526 461.968M261.512 563.437C259.739 560.896 258.16 558.03 256.755 554.943M293.859 561.54C297.961 553.816 300.915 545.957 303.006 538.455M303.006 538.455L278.637 563.437M303.006 538.455C304.592 532.763 305.682 527.277 306.4 522.213M306.4 522.213L263.415 563.437M306.4 522.213C307.3 515.869 307.616 510.186 307.595 505.59M307.595 505.59C307.581 502.542 307.418 499.972 307.179 498.004C297.284 484.348 282.76 482.199 276.734 482.831C271.66 481.883 258.467 483.779 246.29 498.952C246.29 511.106 248.512 536.828 256.755 554.943M307.595 505.59L256.755 554.943" stroke="#A0FFF9" stroke-width="2"/>
<path d="M252.798 544.395L304.666 494.231M296.021 487.606L249.917 533.037M247.996 520.733L286.416 483.82M272.009 482.873L246.075 506.535" stroke="#A0FFF9" stroke-width="2"/>
<path d="M247.054 273.09V123.78C271.279 116.22 297.522 120.63 307.616 123.78V273.09M247.054 273.09H307.616M247.054 273.09C244.846 275.61 241.565 281.406 246.108 284.43C251.785 288.21 250.837 301.44 248.946 303.33C247.054 305.22 225.289 322.23 205.417 332.625C185.545 343.02 145.801 369.48 136.339 416.73C126.876 463.98 161.888 515.955 183.652 532.021C205.417 548.086 251.784 579.271 321.809 553.756C339.472 545.251 377.45 519.357 388.048 483.825C391.202 476.895 397.132 455.664 395.618 426.18C394.987 418.305 395.618 400.854 403.188 394.05C410.758 387.246 408.866 378.615 406.973 375.15C405.396 372 399.025 367.212 386.155 373.26M307.616 273.09C310.139 275.295 313.86 280.65 308.561 284.43C306.984 285.06 303.829 287.265 303.829 291.045C303.829 294.825 303.829 313.41 303.829 322.23C304.145 326.01 302.694 334.704 294.366 339.24L263.139 370.425C253.046 379.56 231.912 400.665 228.127 412.005C221.503 439.41 225.099 477.588 277.334 482.88C290.897 483.195 320.484 474.564 330.325 437.52C333.164 424.92 345.655 396.129 372.907 381.765M386.155 373.26L394.672 387.435C393.782 390.9 389.808 397.074 381.035 394.05L372.907 381.765M386.155 373.26C371.015 344.28 340.545 285.942 339.788 284.43C338.841 282.54 336.003 282.54 335.056 283.485C334.299 284.241 332.848 283.8 332.218 283.485C327.675 280.461 322.755 281.595 320.862 282.54C306.479 287.832 307.93 301.755 310.453 308.055L372.907 381.765" stroke="#A0FFF9" stroke-width="2"/>
<path d="M310.525 279.267V289.645M309.624 307.57C309.323 310.4 308.362 317.382 306.92 322.665C305.477 327.948 300.91 333.042 298.807 334.929" stroke="#A0FFF9" stroke-width="0.25"/>
<path d="M330.032 300.507C330.032 304.496 327.113 307.563 323.708 307.563C320.303 307.563 317.384 304.496 317.384 300.507C317.384 296.518 320.303 293.451 323.708 293.451C327.113 293.451 330.032 296.518 330.032 300.507Z" stroke="#A0FFF9" stroke-width="2"/>
<path d="M393.893 343.718C393.893 367.921 374.601 387.537 350.807 387.537C327.013 387.537 307.721 367.921 307.721 343.718C307.721 319.516 327.013 299.9 350.807 299.9C374.601 299.9 393.893 319.516 393.893 343.718Z" stroke="#A0FFF9" stroke-width="0.25"/>
<path d="M307.596 321.668L382.666 273.408M427.708 346.272L372.344 380.338" stroke="#A0FFF9" stroke-width="0.25"/>
<path d="M307.096 189.183C307.096 206.311 293.537 220.176 276.835 220.176C260.134 220.176 246.575 206.311 246.575 189.183C246.575 172.055 260.134 158.19 276.835 158.19C293.537 158.19 307.096 172.055 307.096 189.183Z" stroke="#A0FFF9"/>
<path d="M281.608 159.309L246.289 194.489M292.109 163.112L250.107 204.949M300.7 169.768L256.789 213.506M305.473 180.227L267.289 218.26M307.382 193.539L281.608 219.211M246.289 117.472V56.6195M307.382 56.6195V115.571M361.793 62.3245H245.334M191.878 62.3245H245.334M245.334 62.3245L219.56 67.0786V56.6195L245.334 62.3245Z" stroke="#A0FFF9" stroke-width="0.25"/>
<path d="M333.962 58.0844L307.596 62.745L333.962 68.3379V58.0844Z" fill="#5DF0E6"/>
<path d="M219.708 66.8732L246.075 62.2125L219.708 56.6197L219.708 66.8732Z" fill="#5DF0E6"/>
<path d="M60.0466 461.646H191.878M60.0466 400.1H191.878M66.6856 345.183V516.563" stroke="#A0FFF9" stroke-width="0.25"/>
<path d="M61.511 370.085H71.7645L66.6377 394.986L61.511 370.085Z" fill="#5DF0E6"/>
<path d="M71.7646 491.662H61.5111L66.6379 466.76L71.7646 491.662Z" fill="#5DF0E6"/>
<path d="M246.628 658.648V509.239M307.042 658.648V515.901M361.793 652.938H191.878" stroke="#A0FFF9" stroke-width="0.25"/>
<path d="M340.38 412.785C351.128 412.154 376.23 407.292 390.646 392.896M379.265 276.399L424.789 349.328M310.978 121.07H540.497M540.497 272.611H313.824M540.497 482.873H276.835" stroke="#A0FFF9" stroke-width="0.25"/>
<path d="M540.497 564.901H533.858M276.835 564.901H533.858M533.858 564.901V121.07" stroke="#A0FFF9" stroke-width="0.25"/>
<path d="M216.779 658.647L216.779 646.929L247.539 652.788L216.779 658.647Z" fill="#5DF0E6"/>
<path d="M336.891 646.93L336.891 658.648L306.131 652.789L336.891 646.93Z" fill="#5DF0E6"/>
<path d="M527.314 537.07H539.033L533.173 566.366L527.314 537.07Z" fill="#5DF0E6"/>
<path d="M527.314 456.507H539.033L533.173 484.338L527.314 456.507Z" fill="#5DF0E6"/>
<path d="M403.667 328.38L413.433 321.904L423.93 348.338L403.667 328.38Z" fill="#5DF0E6"/>
<path d="M398.168 297.298L388.053 303.214L379.059 276.233L398.168 297.298Z" fill="#5DF0E6"/>
<path d="M539.032 510.704L527.314 510.704L533.173 482.873L539.032 510.704Z" fill="#5DF0E6"/>
<path d="M539.032 299.775L527.314 299.775L533.173 271.944L539.032 299.775Z" fill="#5DF0E6"/>
<path d="M539.032 148.902L527.314 148.902L533.173 121.071L539.032 148.902Z" fill="#5DF0E6"/>
<path d="M527.314 245.577L539.032 245.577L533.173 273.408L527.314 245.577Z" fill="#5DF0E6"/>
<path d="M267.779 626.38V613.06H277.103V615.445H270.704V626.38H267.779ZM269.642 621.07V618.685H276.185V621.07H269.642Z" fill="#5DF0E6"/>
<path d="M509.694 534.408L496.374 534.408L496.374 525.057L498.714 525.057L498.714 531.519L507.354 531.519L507.354 524.967L509.694 524.967L509.694 534.408ZM504.051 532.671L501.711 532.671L501.711 525.975L504.051 525.975L504.051 532.671Z" fill="#5DF0E6"/>
<path d="M506.765 380.605L493.445 380.605L493.445 377.68L504.335 377.68L504.335 371.56L506.765 371.56L506.765 380.605Z" fill="#5DF0E6"/>
<path d="M418.336 293.7C418.132 293.389 417.926 293.057 417.717 292.706C417.504 292.358 417.295 292 417.09 291.632C416.885 291.265 416.693 290.895 416.515 290.524L427.344 283.436C427.646 283.734 427.953 284.06 428.264 284.415C428.579 284.776 428.886 285.152 429.186 285.544C429.485 285.936 429.765 286.33 430.025 286.727C431.349 288.75 431.886 290.578 431.636 292.212C431.394 293.848 430.297 295.304 428.344 296.583C427.013 297.453 425.77 297.92 424.612 297.981C423.46 298.04 422.366 297.71 421.328 296.99C420.296 296.268 419.298 295.171 418.336 293.7ZM420.738 293.031C421.244 293.804 421.785 294.368 422.361 294.722C422.945 295.078 423.591 295.204 424.297 295.101C425.012 294.998 425.816 294.655 426.71 294.07C427.598 293.488 428.228 292.89 428.6 292.274C428.979 291.66 429.125 291.016 429.035 290.343C428.951 289.667 428.661 288.949 428.165 288.191C428.04 288 427.894 287.799 427.726 287.586C427.558 287.373 427.392 287.18 427.229 287.008L419.977 291.754C420.092 291.973 420.21 292.186 420.331 292.394C420.461 292.603 420.596 292.815 420.738 293.031Z" fill="#5DF0E6"/>
<path d="M506.918 206.938C506.918 207.304 506.906 207.706 506.882 208.144C506.864 208.576 506.834 209.014 506.792 209.458C506.756 209.896 506.711 210.307 506.657 210.691L493.742 210.691C493.652 210.277 493.574 209.833 493.508 209.359C493.436 208.885 493.382 208.399 493.346 207.901C493.304 207.397 493.283 206.902 493.283 206.416C493.283 205.096 493.421 204.019 493.697 203.185C493.967 202.345 494.378 201.727 494.93 201.331C495.476 200.935 496.163 200.737 496.991 200.737C497.483 200.737 497.936 200.833 498.35 201.025C498.758 201.211 499.103 201.484 499.385 201.844C499.667 202.204 499.859 202.642 499.961 203.158L499.844 203.149C499.964 202.303 500.291 201.631 500.825 201.133C501.353 200.629 502.088 200.377 503.03 200.377C503.648 200.377 504.2 200.494 504.686 200.728C505.166 200.962 505.574 201.337 505.91 201.853C506.24 202.369 506.492 203.047 506.666 203.887C506.834 204.721 506.918 205.738 506.918 206.938ZM504.785 206.155C504.785 205.375 504.716 204.763 504.578 204.319C504.44 203.869 504.233 203.551 503.957 203.365C503.681 203.173 503.33 203.077 502.904 203.077C502.262 203.077 501.794 203.278 501.5 203.68C501.2 204.076 501.05 204.73 501.05 205.642L501.05 208.144L498.863 208.144L498.863 205.921C498.863 205.327 498.8 204.853 498.674 204.499C498.542 204.139 498.35 203.881 498.098 203.725C497.846 203.563 497.528 203.482 497.144 203.482C496.538 203.482 496.1 203.674 495.83 204.058C495.554 204.442 495.416 205.105 495.416 206.047C495.416 206.389 495.431 206.704 495.461 206.992C495.485 207.28 495.521 207.562 495.569 207.838L504.704 207.838C504.734 207.532 504.755 207.247 504.767 206.983C504.779 206.719 504.785 206.443 504.785 206.155Z" fill="#5DF0E6"/>
<path d="M39.6502 436.427C39.6502 438.113 39.4072 439.52 38.9212 440.648C38.4292 441.776 37.6822 442.622 36.6802 443.186C35.6782 443.75 34.4062 444.032 32.8642 444.032C31.3342 444.032 30.0622 443.741 29.0482 443.159C28.0342 442.577 27.2752 441.725 26.7712 440.603C26.2612 439.481 26.0062 438.107 26.0062 436.481C26.0062 435.959 26.0332 435.449 26.0872 434.951C26.1412 434.447 26.2252 433.955 26.3392 433.475L28.7512 433.475C28.6372 433.943 28.5532 434.405 28.4992 434.861C28.4452 435.311 28.4182 435.764 28.4182 436.22C28.4182 437.306 28.5682 438.2 28.8682 438.902C29.1682 439.604 29.6482 440.129 30.3082 440.477C30.9622 440.819 31.8292 440.99 32.9092 440.99C33.9172 440.99 34.7422 440.831 35.3842 440.513C36.0202 440.189 36.4912 439.706 36.7972 439.064C37.0972 438.422 37.2472 437.618 37.2472 436.652C37.2472 436.286 37.2352 435.923 37.2112 435.563C37.1812 435.203 37.1422 434.873 37.0942 434.573L38.1832 435.824L33.0172 435.824L33.0172 433.097L39.3532 433.097C39.4492 433.673 39.5212 434.237 39.5692 434.789C39.6232 435.335 39.6502 435.881 39.6502 436.427Z" fill="#5DF0E6"/>
<path d="M265.243 39L269.545 25.68H273.802L278.104 39H275.224L271.498 26.958H271.804L268.087 39H265.243ZM268.231 35.445L268.861 33.114H274.477L275.098 35.445H268.231Z" fill="#5DF0E6"/>
</g>
<defs>
<filter id="filter0_d_55_1187" x="0.497192" y="0" width="560" height="678.648" filterUnits="userSpaceOnUse" color-interpolation-filters="sRGB">
<feFlood flood-opacity="0" result="BackgroundImageFix"/>
<feColorMatrix in="SourceAlpha" type="matrix" values="0 0 0 0 0 0 0 0 0 0 0 0 0 0 0 0 0 0 127 0" result="hardAlpha"/>
<feOffset/>
<feGaussianBlur stdDeviation="10"/>
<feComposite in2="hardAlpha" operator="out"/>
<feColorMatrix type="matrix" values="0 0 0 0 0.365647 0 0 0 0 0.940234 0 0 0 0 0.902835 0 0 0 1 0"/>
<feBlend mode="normal" in2="BackgroundImageFix" result="effect1_dropShadow_55_1187"/>
<feBlend mode="normal" in="SourceGraphic" in2="effect1_dropShadow_55_1187" result="shape"/>
</filter>
</defs>
</svg>
