<svg width="379" height="625" viewBox="0 0 379 625" fill="none" xmlns="http://www.w3.org/2000/svg">
<g filter="url(#filter0_d_79_531)">
<path d="M78.6538 146.157C81.7321 149.909 85.5223 162.087 76.0565 180.788" stroke="#A0FFF9"/>
</g>
<g filter="url(#filter1_d_79_531)">
<path d="M223.131 192.432C209.971 203.911 181.413 241.037 172.453 297.706M172.453 299.107C178.52 310.026 192.164 341.553 198.212 380.303C200.639 382.543 206.276 388.031 209.412 392.063" stroke="#A0FFF9"/>
</g>
<g filter="url(#filter2_d_79_531)">
<path d="M134.309 227.076C137.51 217.954 131.667 213.462 128.345 212.357L88.4623 193.979C69.8505 177.73 84.4002 166.036 94.0016 162.22C132.715 161.727 210.843 161.038 213.649 162.22C217.157 163.697 223.804 163.143 226.02 177.175C227.793 188.402 221.466 193.793 218.081 195.085L174.633 212.357V285.784C203.051 317.635 209.431 369.591 209.069 391.588C214.354 396.126 224.116 412.032 220.889 439.35C217.663 466.668 197.768 483.253 188.223 488.131C119.797 521.586 91.9388 456.615 90.698 453.141C89.4572 449.667 86.2312 430.062 75.5605 409.465C64.8898 388.868 48.5114 373.979 42.0594 370.753C36.8977 368.172 32.464 370.67 30.8924 372.242C28.9899 373.731 24.7381 377.255 22.9513 379.439C21.1645 381.623 22.2068 386.139 22.9513 388.124C21.2792 386.287 19.6654 385.32 26.5867 396.154C33.5079 406.987 35.2382 421.983 35.2382 428.127C34.4859 429.882 33.4327 436.929 35.2382 451.072C37.4952 468.752 46.1468 510.129 92.7901 544.735C130.105 572.42 166.767 574.326 180.434 571.818C275.226 558.653 300.428 504.11 313.217 449.192C326.007 394.273 289.519 344.62 265.445 319.794C241.372 294.968 252.28 253.967 268.079 234.41C280.717 218.765 283.877 206.323 283.877 202.057M134.309 227.076V263.534L108.39 234.41C97.7431 230.653 77.1061 231.216 79.7367 263.534C74.6479 260.246 64.4234 253.153 64.2355 251.086V227.076M134.309 227.076H64.2355M64.2355 227.076C63.492 224.662 62.4512 218.64 64.2355 213.866C66.4657 207.899 68.345 195.965 64.2355 189.626C60.1259 183.286 47.8835 169.286 51.9028 146.997C55.9221 124.709 72.7299 104.612 97.3935 101.872C117.124 99.6793 187.945 100.958 220.889 101.872C245.521 105.3 292.604 129.76 283.877 200.176" stroke="#A0FFF9" stroke-width="2" shape-rendering="crispEdges"/>
</g>
<g filter="url(#filter3_d_79_531)">
<path d="M283.962 199.925L283.702 203.958" stroke="#A0FFF9"/>
</g>
<g filter="url(#filter4_d_79_531)">
<path d="M68.2347 451.529C77.4956 488.166 116.656 552.83 199.211 518.391C219.337 508.784 257.848 474.06 250.881 412.021C248.254 396.262 236.2 356.119 208.996 321.615" stroke="#A0FFF9"/>
</g>
<g filter="url(#filter5_d_79_531)">
<path d="M233.917 146.736C229.107 153.47 222.373 170.978 233.917 187.139" stroke="#A0FFF9"/>
</g>
<g filter="url(#filter6_d_79_531)">
<path d="M189.917 506.306C171.304 487.487 148.038 500.705 138.732 509.666C124.514 523.109 147.521 563.694 151.14 568.865C154.76 574.035 175.957 572.742 177.767 571.191C179.576 569.64 213.183 529.83 189.917 506.306Z" stroke="#A0FFF9" shape-rendering="crispEdges"/>
</g>
<g filter="url(#filter7_d_79_531)">
<path d="M134.099 522.206L172.481 496.895M181.75 499.984L134.812 529.692M136.713 536.465L187.929 504.975M193.277 510.441L138.377 543.833M141.466 550.368L196.723 516.383M143.962 556.429L197.554 523.037M197.554 531.237L147.646 562.608M151.092 568.668L195.297 542.169M188.761 555.835L161.786 571.758" stroke="#A0FFF9"/>
</g>
<path d="M111.282 300.692L123.034 311.132M186.46 367.479L123.034 311.132M123.034 311.132L55.9051 381.575" stroke="#A0FFF9" stroke-width="0.5"/>
<path d="M105.168 340.182L95.4522 330.988L123.295 311.296L105.168 340.182Z" fill="#5DF0E6"/>
<path d="M73.9101 352.144L83.7489 361.206L56.1737 381.272L73.9101 352.144Z" fill="#5DF0E6"/>
<path d="M230.995 580.644L230.995 594.02L197.554 587.332L230.995 580.644Z" fill="#5DF0E6"/>
<path d="M339.302 538.958H352.678L345.99 572.399L339.302 538.958Z" fill="#5DF0E6"/>
<path d="M339.302 460.341H352.678L345.99 493.782L339.302 460.341Z" fill="#5DF0E6"/>
<path d="M352.678 527.223L339.302 527.223L345.99 493.782L352.678 527.223Z" fill="#5DF0E6"/>
<path d="M350.976 192.432L337.599 192.432L344.288 158.991L350.976 192.432Z" fill="#5DF0E6"/>
<path d="M119.681 35.4893L119.681 48.8657L86.2396 42.1775L119.681 35.4893Z" fill="#5DF0E6"/>
<path d="M208.042 52.3757L208.042 65.7521L174.601 59.0639L208.042 52.3757Z" fill="#5DF0E6"/>
<path d="M191.449 48.8652L191.449 35.4888L224.89 42.177L191.449 48.8652Z" fill="#5DF0E6"/>
<path d="M104.462 65.7522L104.462 52.3758L137.903 59.064L104.462 65.7522Z" fill="#5DF0E6"/>
<path d="M100.658 594.02L100.658 580.644L134.099 587.332L100.658 594.02Z" fill="#5DF0E6"/>
<path d="M63.7522 330.795C63.3862 330.795 62.9842 330.783 62.5462 330.759C62.1142 330.741 61.6762 330.711 61.2322 330.669C60.7942 330.633 60.3832 330.588 59.9992 330.534V317.619C60.4132 317.529 60.8572 317.451 61.3312 317.385C61.8052 317.313 62.2912 317.259 62.7892 317.223C63.2932 317.181 63.7882 317.16 64.2742 317.16C65.5942 317.16 66.6712 317.298 67.5052 317.574C68.3452 317.844 68.9632 318.255 69.3592 318.807C69.7552 319.353 69.9532 320.04 69.9532 320.868C69.9532 321.36 69.8572 321.813 69.6652 322.227C69.4792 322.635 69.2062 322.98 68.8462 323.262C68.4862 323.544 68.0482 323.736 67.5322 323.838L67.5412 323.721C68.3872 323.841 69.0592 324.168 69.5572 324.702C70.0612 325.23 70.3132 325.965 70.3132 326.907C70.3132 327.525 70.1962 328.077 69.9622 328.563C69.7282 329.043 69.3532 329.451 68.8372 329.787C68.3212 330.117 67.6432 330.369 66.8032 330.543C65.9692 330.711 64.9522 330.795 63.7522 330.795ZM64.5352 328.662C65.3152 328.662 65.9272 328.593 66.3712 328.455C66.8212 328.317 67.1392 328.11 67.3252 327.834C67.5172 327.558 67.6132 327.207 67.6132 326.781C67.6132 326.139 67.4122 325.671 67.0102 325.377C66.6142 325.077 65.9602 324.927 65.0482 324.927H62.5462V322.74H64.7692C65.3632 322.74 65.8372 322.677 66.1912 322.551C66.5512 322.419 66.8092 322.227 66.9652 321.975C67.1272 321.723 67.2082 321.405 67.2082 321.021C67.2082 320.415 67.0162 319.977 66.6322 319.707C66.2482 319.431 65.5852 319.293 64.6432 319.293C64.3012 319.293 63.9862 319.308 63.6982 319.338C63.4102 319.362 63.1282 319.398 62.8522 319.446V328.581C63.1582 328.611 63.4432 328.632 63.7072 328.644C63.9712 328.656 64.2472 328.662 64.5352 328.662Z" fill="#5DF0E6"/>
<path d="M165.04 616.564C163.354 616.564 161.947 616.321 160.819 615.835C159.691 615.343 158.845 614.596 158.281 613.594C157.717 612.592 157.435 611.32 157.435 609.778C157.435 608.248 157.726 606.976 158.308 605.962C158.89 604.948 159.742 604.189 160.864 603.685C161.986 603.175 163.36 602.92 164.986 602.92C165.508 602.92 166.018 602.947 166.516 603.001C167.02 603.055 167.512 603.139 167.992 603.253V605.665C167.524 605.551 167.062 605.467 166.606 605.413C166.156 605.359 165.703 605.332 165.247 605.332C164.161 605.332 163.267 605.482 162.565 605.782C161.863 606.082 161.338 606.562 160.99 607.222C160.648 607.876 160.477 608.743 160.477 609.823C160.477 610.831 160.636 611.656 160.954 612.298C161.278 612.934 161.761 613.405 162.403 613.711C163.045 614.011 163.849 614.161 164.815 614.161C165.181 614.161 165.544 614.149 165.904 614.125C166.264 614.095 166.594 614.056 166.894 614.008L165.643 615.097V609.931H168.37V616.267C167.794 616.363 167.23 616.435 166.678 616.483C166.132 616.537 165.586 616.564 165.04 616.564Z" fill="#5DF0E6"/>
<path d="M364.52 539.895V526.575H367.445V531.795H372.935V526.575H375.86V539.895H372.935V534.369H367.445V539.895H364.52Z" fill="#5DF0E6"/>
<path d="M356.676 322.873V309.553H359.601V320.443H365.721V322.873H356.676Z" fill="#5DF0E6"/>
<path d="M149.539 19.9624V6.6424H158.89V8.9824H152.428V17.6224H158.98V19.9624H149.539ZM151.276 14.3194V11.9794H157.972V14.3194H151.276Z" fill="#5DF0E6"/>
<path d="M145.526 82.9761V69.6561H149.081L152.969 78.4581H152.618L156.398 69.6561H159.953V82.9761H157.226V72.2121H157.802L153.941 81.0501H151.538L147.551 72.2121H148.253V82.9761H145.526Z" fill="#5DF0E6"/>
<path d="M87.0189 33.9871V175.338M223.658 33.9871V159.436M78.7735 42.2326H233.081" stroke="#A0FFF9" stroke-width="0.5"/>
<path d="M196.76 543.291V600.043M134.091 537.642V600.043M109.346 587.401H219.622" stroke="#A0FFF9" stroke-width="0.5"/>
<path d="M205.148 571.751H363.323M363.323 494.546H184.905M361.91 160.779H232.923M344.022 153.717L346.846 580.225" stroke="#A0FFF9" stroke-width="0.5"/>
<path d="M136.376 52.3757V208.907M174.836 52.3757V206.984M113.3 59.2984H198.296" stroke="#A0FFF9" stroke-width="0.5"/>
<defs>
<filter id="filter0_d_79_531" x="55.6104" y="125.84" width="46.9591" height="75.1741" filterUnits="userSpaceOnUse" color-interpolation-filters="sRGB">
<feFlood flood-opacity="0" result="BackgroundImageFix"/>
<feColorMatrix in="SourceAlpha" type="matrix" values="0 0 0 0 0 0 0 0 0 0 0 0 0 0 0 0 0 0 127 0" result="hardAlpha"/>
<feOffset/>
<feGaussianBlur stdDeviation="10"/>
<feComposite in2="hardAlpha" operator="out"/>
<feColorMatrix type="matrix" values="0 0 0 0 0.365647 0 0 0 0 0.940234 0 0 0 0 0.902835 0 0 0 1 0"/>
<feBlend mode="normal" in2="BackgroundImageFix" result="effect1_dropShadow_79_531"/>
<feBlend mode="normal" in="SourceGraphic" in2="effect1_dropShadow_79_531" result="shape"/>
</filter>
<filter id="filter1_d_79_531" x="151.959" y="172.055" width="91.5002" height="240.315" filterUnits="userSpaceOnUse" color-interpolation-filters="sRGB">
<feFlood flood-opacity="0" result="BackgroundImageFix"/>
<feColorMatrix in="SourceAlpha" type="matrix" values="0 0 0 0 0 0 0 0 0 0 0 0 0 0 0 0 0 0 127 0" result="hardAlpha"/>
<feOffset/>
<feGaussianBlur stdDeviation="10"/>
<feComposite in2="hardAlpha" operator="out"/>
<feColorMatrix type="matrix" values="0 0 0 0 0.365647 0 0 0 0 0.940234 0 0 0 0 0.902835 0 0 0 1 0"/>
<feBlend mode="normal" in2="BackgroundImageFix" result="effect1_dropShadow_79_531"/>
<feBlend mode="normal" in="SourceGraphic" in2="effect1_dropShadow_79_531" result="shape"/>
</filter>
<filter id="filter2_d_79_531" x="0.5" y="79.6611" width="336.362" height="513.962" filterUnits="userSpaceOnUse" color-interpolation-filters="sRGB">
<feFlood flood-opacity="0" result="BackgroundImageFix"/>
<feColorMatrix in="SourceAlpha" type="matrix" values="0 0 0 0 0 0 0 0 0 0 0 0 0 0 0 0 0 0 127 0" result="hardAlpha"/>
<feOffset/>
<feGaussianBlur stdDeviation="10"/>
<feComposite in2="hardAlpha" operator="out"/>
<feColorMatrix type="matrix" values="0 0 0 0 0.365647 0 0 0 0 0.940234 0 0 0 0 0.902835 0 0 0 1 0"/>
<feBlend mode="normal" in2="BackgroundImageFix" result="effect1_dropShadow_79_531"/>
<feBlend mode="normal" in="SourceGraphic" in2="effect1_dropShadow_79_531" result="shape"/>
</filter>
<filter id="filter3_d_79_531" x="263.203" y="179.892" width="41.2578" height="44.0974" filterUnits="userSpaceOnUse" color-interpolation-filters="sRGB">
<feFlood flood-opacity="0" result="BackgroundImageFix"/>
<feColorMatrix in="SourceAlpha" type="matrix" values="0 0 0 0 0 0 0 0 0 0 0 0 0 0 0 0 0 0 127 0" result="hardAlpha"/>
<feOffset/>
<feGaussianBlur stdDeviation="10"/>
<feComposite in2="hardAlpha" operator="out"/>
<feColorMatrix type="matrix" values="0 0 0 0 0.365647 0 0 0 0 0.940234 0 0 0 0 0.902835 0 0 0 1 0"/>
<feBlend mode="normal" in2="BackgroundImageFix" result="effect1_dropShadow_79_531"/>
<feBlend mode="normal" in="SourceGraphic" in2="effect1_dropShadow_79_531" result="shape"/>
</filter>
<filter id="filter4_d_79_531" x="47.7499" y="301.306" width="224.463" height="247.374" filterUnits="userSpaceOnUse" color-interpolation-filters="sRGB">
<feFlood flood-opacity="0" result="BackgroundImageFix"/>
<feColorMatrix in="SourceAlpha" type="matrix" values="0 0 0 0 0 0 0 0 0 0 0 0 0 0 0 0 0 0 127 0" result="hardAlpha"/>
<feOffset/>
<feGaussianBlur stdDeviation="10"/>
<feComposite in2="hardAlpha" operator="out"/>
<feColorMatrix type="matrix" values="0 0 0 0 0.365647 0 0 0 0 0.940234 0 0 0 0 0.902835 0 0 0 1 0"/>
<feBlend mode="normal" in2="BackgroundImageFix" result="effect1_dropShadow_79_531"/>
<feBlend mode="normal" in="SourceGraphic" in2="effect1_dropShadow_79_531" result="shape"/>
</filter>
<filter id="filter5_d_79_531" x="207.042" y="126.445" width="47.2817" height="80.9844" filterUnits="userSpaceOnUse" color-interpolation-filters="sRGB">
<feFlood flood-opacity="0" result="BackgroundImageFix"/>
<feColorMatrix in="SourceAlpha" type="matrix" values="0 0 0 0 0 0 0 0 0 0 0 0 0 0 0 0 0 0 127 0" result="hardAlpha"/>
<feOffset/>
<feGaussianBlur stdDeviation="10"/>
<feComposite in2="hardAlpha" operator="out"/>
<feColorMatrix type="matrix" values="0 0 0 0 0.365647 0 0 0 0 0.940234 0 0 0 0 0.902835 0 0 0 1 0"/>
<feBlend mode="normal" in2="BackgroundImageFix" result="effect1_dropShadow_79_531"/>
<feBlend mode="normal" in="SourceGraphic" in2="effect1_dropShadow_79_531" result="shape"/>
</filter>
<filter id="filter6_d_79_531" x="113.64" y="476.236" width="104.951" height="116.828" filterUnits="userSpaceOnUse" color-interpolation-filters="sRGB">
<feFlood flood-opacity="0" result="BackgroundImageFix"/>
<feColorMatrix in="SourceAlpha" type="matrix" values="0 0 0 0 0 0 0 0 0 0 0 0 0 0 0 0 0 0 127 0" result="hardAlpha"/>
<feOffset/>
<feGaussianBlur stdDeviation="10"/>
<feComposite in2="hardAlpha" operator="out"/>
<feColorMatrix type="matrix" values="0 0 0 0 0.365647 0 0 0 0 0.940234 0 0 0 0 0.902835 0 0 0 1 0"/>
<feBlend mode="normal" in2="BackgroundImageFix" result="effect1_dropShadow_79_531"/>
<feBlend mode="normal" in="SourceGraphic" in2="effect1_dropShadow_79_531" result="shape"/>
</filter>
<filter id="filter7_d_79_531" x="113.824" y="476.477" width="103.997" height="115.711" filterUnits="userSpaceOnUse" color-interpolation-filters="sRGB">
<feFlood flood-opacity="0" result="BackgroundImageFix"/>
<feColorMatrix in="SourceAlpha" type="matrix" values="0 0 0 0 0 0 0 0 0 0 0 0 0 0 0 0 0 0 127 0" result="hardAlpha"/>
<feOffset/>
<feGaussianBlur stdDeviation="10"/>
<feComposite in2="hardAlpha" operator="out"/>
<feColorMatrix type="matrix" values="0 0 0 0 0.365647 0 0 0 0 0.940234 0 0 0 0 0.902835 0 0 0 1 0"/>
<feBlend mode="normal" in2="BackgroundImageFix" result="effect1_dropShadow_79_531"/>
<feBlend mode="normal" in="SourceGraphic" in2="effect1_dropShadow_79_531" result="shape"/>
</filter>
</defs>
</svg>
