<svg width="400" height="515" viewBox="0 0 400 515" fill="none" xmlns="http://www.w3.org/2000/svg">
<g filter="url(#filter0_d_95_132)">
<path d="M170.5 365H273.5V436H170.5" stroke="#A0FFF9" stroke-width="2"/>
</g>
<g filter="url(#filter1_d_95_132)">
<path d="M106.5 355H100.139C97.7645 355 95.8393 356.925 95.8393 359.3V359.3C95.8393 361.882 93.5802 363.882 91.0174 363.569L36.4898 356.904C34.5971 356.673 32.7233 357.528 31.7865 359.189C23.6228 373.661 14.1418 405.654 30.3382 438.981C31.2314 440.819 33.2035 441.856 35.235 441.636C44.4066 440.642 70.3744 437.829 88.2245 435.895" stroke="#A0FFF9" stroke-width="2"/>
</g>
<g filter="url(#filter2_d_95_132)">
<path d="M88.5 436L90 443.5L106.5 445" stroke="#A0FFF9" stroke-width="2"/>
</g>
<g filter="url(#filter3_d_95_132)">
<path d="M168.921 451.975V289.089C168.921 288.215 168.671 287.322 168.238 286.562C99.8352 166.392 177.727 130.222 225.394 127.174C329.771 129.606 302.052 241.027 274.734 297.438C274.402 298.125 274.236 298.857 274.236 299.619V456.089C274.236 457.019 274.508 457.959 275.013 458.74C296.216 491.5 322.6 473.29 334.256 458.834C334.94 457.985 335.289 456.923 335.289 455.833V299.557C335.289 298.834 335.459 298.092 335.76 297.435C415.412 123.281 296.618 66.742 221.547 69.2055C54.828 74.6766 73.0881 227.123 107.363 297.433C107.7 298.125 107.868 298.861 107.868 299.631V455.912C107.868 456.953 108.213 458.002 108.829 458.841C138.422 499.128 160.69 472.91 168.569 453.796C168.808 453.216 168.921 452.602 168.921 451.975Z" stroke="#A0FFF9" stroke-width="2" shape-rendering="crispEdges"/>
</g>
<line x1="169.625" y1="436" x2="169.625" y2="515" stroke="#A0FFF9" stroke-width="0.25"/>
<line x1="224.625" y1="271" x2="224.625" y2="329" stroke="#A0FFF9" stroke-width="0.25"/>
<line x1="391" y1="307" x2="391" y2="326" stroke="#A0FFF9"/>
<line x1="224.625" y1="161" x2="224.625" y2="219" stroke="#A0FFF9" stroke-width="0.25"/>
<line x1="139.497" y1="30.1504" x2="305.419" y2="28.9933" stroke="#A0FFF9"/>
<line x1="391" y1="472" x2="391" y2="491" stroke="#A0FFF9"/>
<line x1="305" y1="21" x2="305" y2="91" stroke="#A0FFF9"/>
<line x1="140" y1="21" x2="140" y2="91" stroke="#A0FFF9"/>
<line x1="273.625" y1="436" x2="273.625" y2="515" stroke="#A0FFF9" stroke-width="0.25"/>
<line x1="337.5" y1="438.875" x2="398.5" y2="438.875" stroke="#A0FFF9" stroke-width="0.25"/>
<line x1="337.5" y1="361.875" x2="398.5" y2="361.875" stroke="#A0FFF9" stroke-width="0.25"/>
<g filter="url(#filter4_d_95_132)">
<path d="M108.5 347.024C117.142 338.095 143.88 328.571 169.5 350" stroke="#A0FFF9" stroke-width="2"/>
</g>
<g filter="url(#filter5_d_95_132)">
<path d="M274.5 348.559C283.142 339.914 309.88 329.251 335.5 350" stroke="#A0FFF9" stroke-width="2"/>
</g>
<g filter="url(#filter6_d_95_132)">
<path d="M108.5 335C118.158 312.361 143.88 280.667 169.5 335" stroke="#A0FFF9" stroke-width="2"/>
</g>
<g filter="url(#filter7_d_95_132)">
<path d="M274.5 333.485C284.158 311.268 309.88 281.679 335.5 335" stroke="#A0FFF9" stroke-width="2"/>
</g>
<g filter="url(#filter8_d_95_132)">
<path d="M108.5 302H168.5" stroke="#A0FFF9" stroke-width="2"/>
</g>
<g filter="url(#filter9_d_95_132)">
<path d="M275 302H335.5" stroke="#A0FFF9" stroke-width="2"/>
</g>
<g filter="url(#filter10_d_95_132)">
<path d="M103.5 286L152.5 254" stroke="#A0FFF9" stroke-width="2"/>
</g>
<g filter="url(#filter11_d_95_132)">
<path d="M83.5 210H141.5" stroke="#A0FFF9" stroke-width="2"/>
</g>
<g filter="url(#filter12_d_95_132)">
<path d="M300.5 210L361.5 210" stroke="#A0FFF9" stroke-width="2"/>
</g>
<g filter="url(#filter13_d_95_132)">
<path d="M291.5 256L340.5 286" stroke="#A0FFF9" stroke-width="2"/>
</g>
<path d="M193.5 494V506L169.5 500L193.5 494Z" fill="#A0FFF9"/>
<path d="M248.5 506V494L273.5 500L248.5 506Z" fill="#A0FFF9"/>
<path d="M217.5 329H232.5L225 360L217.5 329Z" fill="#A0FFF9"/>
<path d="M382.5 326H398.5L390.5 357L382.5 326Z" fill="#A0FFF9"/>
<path d="M232.5 161H217.5L225 131L232.5 161Z" fill="#A0FFF9"/>
<path d="M398.5 472H382.5L390.5 442L398.5 472Z" fill="#A0FFF9"/>
<path d="M164.5 23.5718V36.5718L139.5 30.0718L164.5 23.5718Z" fill="#A0FFF9"/>
<path d="M280.5 35V22L304.5 28.5L280.5 35Z" fill="#A0FFF9"/>
<path d="M217.612 497L221.436 485.16H225.22L229.044 497H226.484L223.172 486.296H223.444L220.14 497H217.612ZM220.268 493.84L220.828 491.768H225.82L226.372 493.84H220.268Z" fill="#5DF0E6"/>
<path d="M225.34 249.152C224.359 249.152 223.487 249.037 222.724 248.808C221.961 248.573 221.313 248.213 220.78 247.728C220.252 247.237 219.852 246.611 219.58 245.848C219.308 245.085 219.172 244.171 219.172 243.104C219.172 241.749 219.417 240.621 219.908 239.72C220.399 238.813 221.113 238.136 222.052 237.688C222.991 237.235 224.129 237.008 225.468 237.008C225.921 237.008 226.359 237.032 226.78 237.08C227.201 237.123 227.612 237.192 228.012 237.288V239.432C227.639 239.341 227.257 239.272 226.868 239.224C226.484 239.176 226.087 239.152 225.676 239.152C224.823 239.152 224.116 239.285 223.556 239.552C223.001 239.813 222.585 240.232 222.308 240.808C222.031 241.384 221.892 242.139 221.892 243.072C221.892 244.037 222.028 244.808 222.3 245.384C222.577 245.955 222.988 246.368 223.532 246.624C224.081 246.88 224.767 247.008 225.588 247.008C225.993 247.008 226.396 246.976 226.796 246.912C227.196 246.843 227.601 246.749 228.012 246.632V248.768C227.633 248.885 227.212 248.979 226.748 249.048C226.289 249.117 225.82 249.152 225.34 249.152Z" fill="#5DF0E6"/>
<path d="M384.812 407.12C384.481 407.12 384.135 407.112 383.772 407.096C383.409 407.085 383.041 407.067 382.668 407.04C382.295 407.013 381.927 406.976 381.564 406.928V395.424C381.932 395.344 382.324 395.275 382.74 395.216C383.161 395.157 383.591 395.112 384.028 395.08C384.465 395.048 384.895 395.032 385.316 395.032C387.465 395.032 389.087 395.523 390.18 396.504C391.279 397.48 391.828 399.005 391.828 401.08C391.828 402.493 391.569 403.645 391.052 404.536C390.535 405.421 389.756 406.075 388.716 406.496C387.676 406.912 386.375 407.12 384.812 407.12ZM385.484 405.008C386.305 405.008 386.988 404.88 387.532 404.624C388.081 404.363 388.489 403.944 388.756 403.368C389.028 402.787 389.164 402.021 389.164 401.072C389.164 400.128 389.025 399.368 388.748 398.792C388.476 398.211 388.068 397.789 387.524 397.528C386.98 397.261 386.305 397.128 385.5 397.128C385.297 397.128 385.076 397.139 384.836 397.16C384.596 397.181 384.372 397.211 384.164 397.248V404.952C384.383 404.973 384.599 404.989 384.812 405C385.031 405.005 385.255 405.008 385.484 405.008ZM395.326 407V396.672L396.254 397.552L392.638 400.048V397.624L396.254 395.12H397.926V407H395.326Z" fill="#5DF0E6"/>
<path d="M219.564 16V4.16H227.876V6.24H222.132V13.92H227.956V16H219.564ZM221.108 10.984V8.904H227.06V10.984H221.108Z" fill="#5DF0E6"/>
<defs>
<filter id="filter0_d_95_132" x="150.5" y="344" width="144" height="113" filterUnits="userSpaceOnUse" color-interpolation-filters="sRGB">
<feFlood flood-opacity="0" result="BackgroundImageFix"/>
<feColorMatrix in="SourceAlpha" type="matrix" values="0 0 0 0 0 0 0 0 0 0 0 0 0 0 0 0 0 0 127 0" result="hardAlpha"/>
<feOffset/>
<feGaussianBlur stdDeviation="10"/>
<feComposite in2="hardAlpha" operator="out"/>
<feColorMatrix type="matrix" values="0 0 0 0 0.365647 0 0 0 0 0.940234 0 0 0 0 0.902835 0 0 0 1 0"/>
<feBlend mode="normal" in2="BackgroundImageFix" result="effect1_dropShadow_95_132"/>
<feBlend mode="normal" in="SourceGraphic" in2="effect1_dropShadow_95_132" result="shape"/>
</filter>
<filter id="filter1_d_95_132" x="0.499481" y="334" width="126.001" height="128.665" filterUnits="userSpaceOnUse" color-interpolation-filters="sRGB">
<feFlood flood-opacity="0" result="BackgroundImageFix"/>
<feColorMatrix in="SourceAlpha" type="matrix" values="0 0 0 0 0 0 0 0 0 0 0 0 0 0 0 0 0 0 127 0" result="hardAlpha"/>
<feOffset/>
<feGaussianBlur stdDeviation="10"/>
<feComposite in2="hardAlpha" operator="out"/>
<feColorMatrix type="matrix" values="0 0 0 0 0.365647 0 0 0 0 0.940234 0 0 0 0 0.902835 0 0 0 1 0"/>
<feBlend mode="normal" in2="BackgroundImageFix" result="effect1_dropShadow_95_132"/>
<feBlend mode="normal" in="SourceGraphic" in2="effect1_dropShadow_95_132" result="shape"/>
</filter>
<filter id="filter2_d_95_132" x="67.5194" y="415.804" width="59.0711" height="50.1924" filterUnits="userSpaceOnUse" color-interpolation-filters="sRGB">
<feFlood flood-opacity="0" result="BackgroundImageFix"/>
<feColorMatrix in="SourceAlpha" type="matrix" values="0 0 0 0 0 0 0 0 0 0 0 0 0 0 0 0 0 0 127 0" result="hardAlpha"/>
<feOffset/>
<feGaussianBlur stdDeviation="10"/>
<feComposite in2="hardAlpha" operator="out"/>
<feColorMatrix type="matrix" values="0 0 0 0 0.365647 0 0 0 0 0.940234 0 0 0 0 0.902835 0 0 0 1 0"/>
<feBlend mode="normal" in2="BackgroundImageFix" result="effect1_dropShadow_95_132"/>
<feBlend mode="normal" in="SourceGraphic" in2="effect1_dropShadow_95_132" result="shape"/>
</filter>
<filter id="filter3_d_95_132" x="63.4487" y="48.1289" width="319.731" height="452.871" filterUnits="userSpaceOnUse" color-interpolation-filters="sRGB">
<feFlood flood-opacity="0" result="BackgroundImageFix"/>
<feColorMatrix in="SourceAlpha" type="matrix" values="0 0 0 0 0 0 0 0 0 0 0 0 0 0 0 0 0 0 127 0" result="hardAlpha"/>
<feOffset/>
<feGaussianBlur stdDeviation="10"/>
<feComposite in2="hardAlpha" operator="out"/>
<feColorMatrix type="matrix" values="0 0 0 0 0.365647 0 0 0 0 0.940234 0 0 0 0 0.902835 0 0 0 1 0"/>
<feBlend mode="normal" in2="BackgroundImageFix" result="effect1_dropShadow_95_132"/>
<feBlend mode="normal" in="SourceGraphic" in2="effect1_dropShadow_95_132" result="shape"/>
</filter>
<filter id="filter4_d_95_132" x="87.7814" y="316" width="102.36" height="54.7676" filterUnits="userSpaceOnUse" color-interpolation-filters="sRGB">
<feFlood flood-opacity="0" result="BackgroundImageFix"/>
<feColorMatrix in="SourceAlpha" type="matrix" values="0 0 0 0 0 0 0 0 0 0 0 0 0 0 0 0 0 0 127 0" result="hardAlpha"/>
<feOffset/>
<feGaussianBlur stdDeviation="10"/>
<feComposite in2="hardAlpha" operator="out"/>
<feColorMatrix type="matrix" values="0 0 0 0 0.365647 0 0 0 0 0.940234 0 0 0 0 0.902835 0 0 0 1 0"/>
<feBlend mode="normal" in2="BackgroundImageFix" result="effect1_dropShadow_95_132"/>
<feBlend mode="normal" in="SourceGraphic" in2="effect1_dropShadow_95_132" result="shape"/>
</filter>
<filter id="filter5_d_95_132" x="253.793" y="316.999" width="102.337" height="53.7783" filterUnits="userSpaceOnUse" color-interpolation-filters="sRGB">
<feFlood flood-opacity="0" result="BackgroundImageFix"/>
<feColorMatrix in="SourceAlpha" type="matrix" values="0 0 0 0 0 0 0 0 0 0 0 0 0 0 0 0 0 0 127 0" result="hardAlpha"/>
<feOffset/>
<feGaussianBlur stdDeviation="10"/>
<feComposite in2="hardAlpha" operator="out"/>
<feColorMatrix type="matrix" values="0 0 0 0 0.365647 0 0 0 0 0.940234 0 0 0 0 0.902835 0 0 0 1 0"/>
<feBlend mode="normal" in2="BackgroundImageFix" result="effect1_dropShadow_95_132"/>
<feBlend mode="normal" in="SourceGraphic" in2="effect1_dropShadow_95_132" result="shape"/>
</filter>
<filter id="filter6_d_95_132" x="87.5802" y="284" width="102.824" height="71.4263" filterUnits="userSpaceOnUse" color-interpolation-filters="sRGB">
<feFlood flood-opacity="0" result="BackgroundImageFix"/>
<feColorMatrix in="SourceAlpha" type="matrix" values="0 0 0 0 0 0 0 0 0 0 0 0 0 0 0 0 0 0 127 0" result="hardAlpha"/>
<feOffset/>
<feGaussianBlur stdDeviation="10"/>
<feComposite in2="hardAlpha" operator="out"/>
<feColorMatrix type="matrix" values="0 0 0 0 0.365647 0 0 0 0 0.940234 0 0 0 0 0.902835 0 0 0 1 0"/>
<feBlend mode="normal" in2="BackgroundImageFix" result="effect1_dropShadow_95_132"/>
<feBlend mode="normal" in="SourceGraphic" in2="effect1_dropShadow_95_132" result="shape"/>
</filter>
<filter id="filter7_d_95_132" x="253.583" y="284" width="102.818" height="71.4331" filterUnits="userSpaceOnUse" color-interpolation-filters="sRGB">
<feFlood flood-opacity="0" result="BackgroundImageFix"/>
<feColorMatrix in="SourceAlpha" type="matrix" values="0 0 0 0 0 0 0 0 0 0 0 0 0 0 0 0 0 0 127 0" result="hardAlpha"/>
<feOffset/>
<feGaussianBlur stdDeviation="10"/>
<feComposite in2="hardAlpha" operator="out"/>
<feColorMatrix type="matrix" values="0 0 0 0 0.365647 0 0 0 0 0.940234 0 0 0 0 0.902835 0 0 0 1 0"/>
<feBlend mode="normal" in2="BackgroundImageFix" result="effect1_dropShadow_95_132"/>
<feBlend mode="normal" in="SourceGraphic" in2="effect1_dropShadow_95_132" result="shape"/>
</filter>
<filter id="filter8_d_95_132" x="88.5" y="281" width="100" height="42" filterUnits="userSpaceOnUse" color-interpolation-filters="sRGB">
<feFlood flood-opacity="0" result="BackgroundImageFix"/>
<feColorMatrix in="SourceAlpha" type="matrix" values="0 0 0 0 0 0 0 0 0 0 0 0 0 0 0 0 0 0 127 0" result="hardAlpha"/>
<feOffset/>
<feGaussianBlur stdDeviation="10"/>
<feComposite in2="hardAlpha" operator="out"/>
<feColorMatrix type="matrix" values="0 0 0 0 0.365647 0 0 0 0 0.940234 0 0 0 0 0.902835 0 0 0 1 0"/>
<feBlend mode="normal" in2="BackgroundImageFix" result="effect1_dropShadow_95_132"/>
<feBlend mode="normal" in="SourceGraphic" in2="effect1_dropShadow_95_132" result="shape"/>
</filter>
<filter id="filter9_d_95_132" x="255" y="281" width="100.5" height="42" filterUnits="userSpaceOnUse" color-interpolation-filters="sRGB">
<feFlood flood-opacity="0" result="BackgroundImageFix"/>
<feColorMatrix in="SourceAlpha" type="matrix" values="0 0 0 0 0 0 0 0 0 0 0 0 0 0 0 0 0 0 127 0" result="hardAlpha"/>
<feOffset/>
<feGaussianBlur stdDeviation="10"/>
<feComposite in2="hardAlpha" operator="out"/>
<feColorMatrix type="matrix" values="0 0 0 0 0.365647 0 0 0 0 0.940234 0 0 0 0 0.902835 0 0 0 1 0"/>
<feBlend mode="normal" in2="BackgroundImageFix" result="effect1_dropShadow_95_132"/>
<feBlend mode="normal" in="SourceGraphic" in2="effect1_dropShadow_95_132" result="shape"/>
</filter>
<filter id="filter10_d_95_132" x="82.9532" y="233.163" width="90.0936" height="73.6748" filterUnits="userSpaceOnUse" color-interpolation-filters="sRGB">
<feFlood flood-opacity="0" result="BackgroundImageFix"/>
<feColorMatrix in="SourceAlpha" type="matrix" values="0 0 0 0 0 0 0 0 0 0 0 0 0 0 0 0 0 0 127 0" result="hardAlpha"/>
<feOffset/>
<feGaussianBlur stdDeviation="10"/>
<feComposite in2="hardAlpha" operator="out"/>
<feColorMatrix type="matrix" values="0 0 0 0 0.365647 0 0 0 0 0.940234 0 0 0 0 0.902835 0 0 0 1 0"/>
<feBlend mode="normal" in2="BackgroundImageFix" result="effect1_dropShadow_95_132"/>
<feBlend mode="normal" in="SourceGraphic" in2="effect1_dropShadow_95_132" result="shape"/>
</filter>
<filter id="filter11_d_95_132" x="63.5" y="189" width="98" height="42" filterUnits="userSpaceOnUse" color-interpolation-filters="sRGB">
<feFlood flood-opacity="0" result="BackgroundImageFix"/>
<feColorMatrix in="SourceAlpha" type="matrix" values="0 0 0 0 0 0 0 0 0 0 0 0 0 0 0 0 0 0 127 0" result="hardAlpha"/>
<feOffset/>
<feGaussianBlur stdDeviation="10"/>
<feComposite in2="hardAlpha" operator="out"/>
<feColorMatrix type="matrix" values="0 0 0 0 0.365647 0 0 0 0 0.940234 0 0 0 0 0.902835 0 0 0 1 0"/>
<feBlend mode="normal" in2="BackgroundImageFix" result="effect1_dropShadow_95_132"/>
<feBlend mode="normal" in="SourceGraphic" in2="effect1_dropShadow_95_132" result="shape"/>
</filter>
<filter id="filter12_d_95_132" x="280.5" y="189" width="101" height="42" filterUnits="userSpaceOnUse" color-interpolation-filters="sRGB">
<feFlood flood-opacity="0" result="BackgroundImageFix"/>
<feColorMatrix in="SourceAlpha" type="matrix" values="0 0 0 0 0 0 0 0 0 0 0 0 0 0 0 0 0 0 127 0" result="hardAlpha"/>
<feOffset/>
<feGaussianBlur stdDeviation="10"/>
<feComposite in2="hardAlpha" operator="out"/>
<feColorMatrix type="matrix" values="0 0 0 0 0.365647 0 0 0 0 0.940234 0 0 0 0 0.902835 0 0 0 1 0"/>
<feBlend mode="normal" in2="BackgroundImageFix" result="effect1_dropShadow_95_132"/>
<feBlend mode="normal" in="SourceGraphic" in2="effect1_dropShadow_95_132" result="shape"/>
</filter>
<filter id="filter13_d_95_132" x="270.978" y="235.147" width="90.0443" height="71.7061" filterUnits="userSpaceOnUse" color-interpolation-filters="sRGB">
<feFlood flood-opacity="0" result="BackgroundImageFix"/>
<feColorMatrix in="SourceAlpha" type="matrix" values="0 0 0 0 0 0 0 0 0 0 0 0 0 0 0 0 0 0 127 0" result="hardAlpha"/>
<feOffset/>
<feGaussianBlur stdDeviation="10"/>
<feComposite in2="hardAlpha" operator="out"/>
<feColorMatrix type="matrix" values="0 0 0 0 0.365647 0 0 0 0 0.940234 0 0 0 0 0.902835 0 0 0 1 0"/>
<feBlend mode="normal" in2="BackgroundImageFix" result="effect1_dropShadow_95_132"/>
<feBlend mode="normal" in="SourceGraphic" in2="effect1_dropShadow_95_132" result="shape"/>
</filter>
</defs>
</svg>
